<?xml version="1.0" standalone="yes"?>
<svg xmlns="http://www.w3.org/2000/svg" width="1061" height="2085">
<path style="fill:#232b63; stroke:none;" d="M0 0L0 2085L1061 2085L1061 0L0 0z"/>
<path style="fill:#aba8bf; stroke:none;" d="M447 793C468.359 777.954 486.512 754.488 505 736C509.287 731.713 519.663 717.056 526 717.056C532.337 717.056 542.713 731.713 547 736C565.488 754.488 583.641 777.954 605 793C589.697 771.275 565.805 752.805 547 734C542.651 729.651 532.471 715.207 526 715.207C519.529 715.207 509.349 729.651 505 734C486.195 752.805 462.303 771.275 447 793z"/>
<path style="fill:#fdfdfe; stroke:none;" d="M447 819L404 819L404 863L378 863.603L354 886L299 941L299 942L354 997L378 1019.4L404 1020L404 1063L447 1063L447.603 1089L463 1106L500 1143L518 1161L526 1166.79L534 1161L552 1143L589 1106L604.397 1089L605 1063L648 1063L648 1020L674 1019.4L698 997L753 942L753 941L698 886L674 863.603L648 863L648 819L605 819L604.397 794L589 777L552 740L534 722.001L526 716.207L518 722.001L500 740L463 777L447.603 794L447 819z"/>
<path style="fill:#67658c; stroke:none;" d="M403 819L403 862L404 862C404 849.781 407.71 830.226 403 819M648 819L648 862L649 862C649 849.781 652.711 830.226 648 819z"/>
<path style="fill:#aba8bf; stroke:none;" d="M412 827L413 828L412 827z"/>
<path style="fill:#7f7b9b; stroke:none;" d="M413 827L413 828L639 828L618 827L572 827L413 827z"/>
<path style="fill:#aba8bf; stroke:none;" d="M639 827L640 828L639 827z"/>
<path style="fill:#67658c; stroke:none;" d="M412 828L412 1055L413 1055L413 895L413 849L412 828z"/>
<path style="fill:#232b63; stroke:none;" d="M413 828L413 1055L639 1055L639 828L413 828z"/>
<path style="fill:#67658c; stroke:none;" d="M639 828L639 1055L640 1055L640 895L640 849L639 828M526 831L527 832L526 831M524 832L523 834L524 832z"/>
<path style="fill:#fdfdfe; stroke:none;" d="M449 864L449 895C449 899.48 449.899 905.037 447.397 909C442.215 917.208 432.848 924.149 426 931C423.576 933.425 418.207 937.188 418.207 941C418.207 944.812 423.576 948.575 426 951C432.828 957.831 442.164 964.757 447.258 973C453.56 983.198 449 1007.14 449 1019L481 1019L495 1020.6L517 1042L526 1048.79L535 1042L557 1020.6L571 1019L603 1019C603 1007.14 598.44 983.198 604.742 973C609.836 964.757 619.172 957.831 626 951C628.424 948.575 633.793 944.812 633.793 941C633.793 937.188 628.424 933.425 626 931C619.152 924.149 609.785 917.208 604.603 909C602.101 905.037 603 899.48 603 895L603 864L572 864L558 862.397L536 841L526 833.207L516 841L494 862.397L480 864L449 864z"/>
<path style="fill:#67658c; stroke:none;" d="M525 838C518.667 844.333 512.296 850.63 506 857C503.882 859.142 499.142 862.932 504 864L504 863L502 862C508.726 857.262 523.043 846.075 525 838z"/>
<path style="fill:#232b63; stroke:none;" d="M526 838L502 863C508.108 867.302 518.491 883.793 526 883.793C534.387 883.793 543.222 866.627 551 863L526 838z"/>
<path style="fill:#67658c; stroke:none;" d="M499 857L500 858L499 857M498 858L499 859L498 858z"/>
<path style="fill:#7f7b9b; stroke:none;" d="M377 862L378 863L377 862z"/>
<path style="fill:#aba8bf; stroke:none;" d="M378 862L378 863L404 863L378 862M648 862L648 863L674 863L648 862z"/>
<path style="fill:#7f7b9b; stroke:none;" d="M674 862L675 863L674 862z"/>
<path style="fill:#aba8bf; stroke:none;" d="M376 863L377 864L376 863z"/>
<path style="fill:#67658c; stroke:none;" d="M449 863L449 864L494 864C482.299 859.09 461.742 863 449 863z"/>
<path style="fill:#aba8bf; stroke:none;" d="M500 863L501 864L500 863z"/>
<path style="fill:#67658c; stroke:none;" d="M548 863L548 864L552 864L548 863M558 863L558 864L603 864C591.299 859.09 570.742 863 558 863z"/>
<path style="fill:#aba8bf; stroke:none;" d="M675 863L676 864L675 863M375 864L376 865L375 864M448 864L448 909L449 909C449 896.258 452.91 875.701 448 864M504 864L505 865L504 864M547 864L548 865L547 864M603 864L603 909L604 909C604 896.258 607.91 875.701 603 864M676 864L677 865L676 864M374 865L375 866L374 865M505 865L506 866L505 865M546 865L547 866L546 865M677 865L678 866L677 865M373 866L374 867L373 866M506 866L507 867L506 866M545 866L546 867L545 866M678 866L679 867L678 866M372 867L373 868L372 867M507 867L508 868L507 867M544 867L545 868L544 867M679 867L680 868L679 867M371 868L372 869L371 868M452 868L452 904L453 904C453 893.613 456.011 877.56 452 868z"/>
<path style="fill:#232b63; stroke:none;" d="M453 868L453 903L486 902C486 891.151 483.653 877.719 489 868L453 868z"/>
<path style="fill:#67658c; stroke:none;" d="M495 868C487.449 876.929 491 894.786 491 906L492 906L495 868z"/>
<path style="fill:#232b63; stroke:none;" d="M507 923C507 907.163 512.956 902.044 524 891C521.122 886.915 517.53 883.531 514 880C511.671 877.671 509.38 875.296 507 873.019C490.043 856.796 492.02 887.401 492 897C491.994 899.946 492.516 904.081 489.682 905.972C481.261 911.591 458.026 899.94 453.608 912.019C451.15 918.74 468.441 937.793 475 937.793C480.469 937.793 485.947 928.355 490 925.318C494.683 921.809 501.464 923 507 923z"/>
<path style="fill:#aba8bf; stroke:none;" d="M502 868L503 869L502 868M508 868L509 869L508 868M543 868L544 869L543 868M549 868L528 890C534.303 885.56 547.161 875.588 549 868z"/>
<path style="fill:#232b63; stroke:none;" d="M528 890L528 891C539.044 902.044 545 907.163 545 923C550.536 923 557.317 921.809 562 925.318C565.882 928.227 572.491 939.028 578 937.654C584.726 935.978 605.869 915.223 596.276 908.318C589.319 903.311 569.458 907 561 907C561 898.79 565.312 872.021 555.981 868.608C546.915 865.292 533.601 884.399 528 890z"/>
<path style="fill:#67658c; stroke:none;" d="M563 868L564 869L563 868z"/>
<path style="fill:#232b63; stroke:none;" d="M564 868L566 902C576.404 902 589.298 899.889 599 904L599 868L564 868z"/>
<path style="fill:#aba8bf; stroke:none;" d="M599 868L599 904L600 904C600 893.613 603.011 877.56 599 868M680 868L681 869L680 868M370 869L371 870L370 869M503 869L504 870L503 869M509 869L510 870L509 869M542 869L543 870L542 869M681 869L682 870L681 869M369 870L370 871L369 870M504 870L505 871L504 870M510 870L511 871L510 870M541 870L542 871L541 870M682 870L683 871L682 870M368 871L369 872L368 871z"/>
<path style="fill:#67658c; stroke:none;" d="M486 871L486 902L487 902L486 871z"/>
<path style="fill:#aba8bf; stroke:none;" d="M505 871L506 872L505 871M511 871L512 872L511 871M540 871L541 872L540 871z"/>
<path style="fill:#67658c; stroke:none;" d="M565 871L565 902L566 902L565 871z"/>
<path style="fill:#aba8bf; stroke:none;" d="M683 871L684 872L683 871M367 872L368 873L367 872M506 872L507 873L506 872M512 872L513 873L512 872M539 872L540 873L539 872M684 872L685 873L684 872M366 873L367 874L366 873M507 873L508 874L507 873M513 873L514 874L513 873M538 873L539 874L538 873M685 873L686 874L685 873M365 874L366 875L365 874M508 874L509 875L508 874M514 874L515 875L514 874M537 874L538 875L537 874M686 874L687 875L686 874M364 875L365 876L364 875M509 875L510 876L509 875M515 875L516 876L515 875M536 875L537 876L536 875M687 875L688 876L687 875M363 876L364 877L363 876M510 876L511 877L510 876M516 876L517 877L516 876M535 876L536 877L535 876M688 876L689 877L688 876M362 877L363 878L362 877M511 877L512 878L511 877M517 877L518 878L517 877M534 877L535 878L534 877M689 877L690 878L689 877M361 878L362 879L361 878M512 878L513 879L512 878M518 878L519 879L518 878M533 878L534 879L533 878M690 878L691 879L690 878M360 879L361 880L360 879M513 879L514 880L513 879M519 879L520 880L519 879M532 879L533 880L532 879M691 879L692 880L691 879M359 880L360 881L359 880M514 880L515 881L514 880M520 880L521 881L520 880M531 880L532 881L531 880M692 880L693 881L692 880M358 881L359 882L358 881M515 881L516 882L515 881M521 881L522 882L521 881M530 881L531 882L530 881M693 881L694 882L693 881M357 882L358 883L357 882M516 882L517 883L516 882M522 882L523 883L522 882M529 882L530 883L529 882M694 882L695 883L694 882M356 883L357 884L356 883M517 883L518 884L517 883M523 883L524 884L523 883M528 883L529 884L528 883M695 883L696 884L695 883M355 884L356 885L355 884M518 884L519 885L518 884M524 884L525 885L524 884M527 884L528 885L527 884M696 884L697 885L696 884M354 885L355 886L354 885M519 885L520 886L519 885M525.667 885.333L526.333 885.667L525.667 885.333M697 885L698 886L697 885M353 886L354 887L353 886M520 886L521 887L520 886M698 886L699 887L698 886M352 887L353 888L352 887M521 887L522 888L521 887M699 887L700 888L699 887M351 888L352 889L351 888M522 888L523 889L522 888M700 888L701 889L700 888M350 889L351 890L350 889M523 889L524 890L523 889M701 889L702 890L701 889M349 890L350 891L349 890M702 890L703 891L702 890M348 891L349 892L348 891M523 891L524 892L523 891M528 891L529 892L528 891M703 891L704 892L703 891M347 892L348 893L347 892M522 892L523 893L522 892M529 892L530 893L529 892M704 892L705 893L704 892M346 893L347 894L346 893M521 893L522 894L521 893M530 893L531 894L530 893M705 893L706 894L705 893M345 894L346 895L345 894M520 894L521 895L520 894M531 894L532 895L531 894M706 894L707 895L706 894M344 895L345 896L344 895M519 895L520 896L519 895M532 895L533 896L532 895M707 895L708 896L707 895M343 896L344 897L343 896M518 896L519 897L518 896M533 896L534 897L533 896M708 896L709 897L708 896M342 897L343 898L342 897M517 897L518 898L517 897M534 897L535 898L534 897M709 897L710 898L709 897M341 898L342 899L341 898M516 898L517 899L516 898M535 898L536 899L535 898M710 898L711 899L710 898M340 899L341 900L340 899M515 899L516 900L515 899M536 899L537 900L536 899M711 899L712 900L711 899M339 900L340 901L339 900M514 900L515 901L514 900M537 900L538 901L537 900M712 900L713 901L712 900M338 901L339 902L338 901M513 901L514 902L513 901M538 901L539 902L538 901M713 901L714 902L713 901M337 902L338 903L337 902M512 902L513 903L512 902M539 902L540 903L539 902M714 902L715 903L714 902M336 903L337 904L336 903z"/>
<path style="fill:#67658c; stroke:none;" d="M453 903L454 904L453 903z"/>
<path style="fill:#aba8bf; stroke:none;" d="M511 903L512 904L511 903M540 903L541 904L540 903M715 903L716 904L715 903M335 904L336 905L335 904M510 904L511 905L510 904M541 904L542 905L541 904M716 904L717 905L716 904M334 905L335 906L334 905M509 905L510 906L509 905M542 905L543 906L542 905M717 905L718 906L717 905M333 906L334 907L333 906z"/>
<path style="fill:#7f7b9b; stroke:none;" d="M457 906L457 907L491 907L457 906z"/>
<path style="fill:#aba8bf; stroke:none;" d="M508 906L509 907L508 906M543 906L544 907L543 906z"/>
<path style="fill:#7f7b9b; stroke:none;" d="M561 906L561 907L595 907L561 906z"/>
<path style="fill:#aba8bf; stroke:none;" d="M718 906L719 907L718 906M332 907L333 908L332 907z"/>
<path style="fill:#67658c; stroke:none;" d="M456 907L457 908L456 907M507 907L507 923L508 923L507 907M544 907L544 923L545 923L544 907z"/>
<path style="fill:#aba8bf; stroke:none;" d="M719 907L720 908L719 907M331 908L332 909L331 908z"/>
<path style="fill:#67658c; stroke:none;" d="M455 908L456 909L455 908M596 908L597 909L596 908z"/>
<path style="fill:#aba8bf; stroke:none;" d="M720 908L721 909L720 908M330 909L331 910L330 909z"/>
<path style="fill:#67658c; stroke:none;" d="M454 909L455 910L454 909M604 909L605 910L604 909z"/>
<path style="fill:#aba8bf; stroke:none;" d="M721 909L722 910L721 909M329 910L330 911L329 910z"/>
<path style="fill:#67658c; stroke:none;" d="M453 910L454 911L453 910z"/>
<path style="fill:#aba8bf; stroke:none;" d="M722 910L723 911L722 910M328 911L329 912L328 911M452 911L452 918L453 918L452 911M599 911L599 917L600 917L599 911M723 911L724 912L723 911M327 912L328 913L327 912M724 912L725 913L724 912M326 913L327 914L326 913M725 913L726 914L725 913M325 914L326 915L325 914M726 914L727 915L726 914M324 915L325 916L324 915M603 915L603 919L604 919L603 915M727 915L728 916L727 915M323 916L324 917L323 916z"/>
<path style="fill:#67658c; stroke:none;" d="M447 916L423 941C429.936 936.114 444.984 924.316 447 916z"/>
<path style="fill:#aba8bf; stroke:none;" d="M448 916L448 919L449 919L448 916z"/>
<path style="fill:#232b63; stroke:none;" d="M604 916C601.295 925.638 588.946 934.054 582 941L582 942L604 966L629 942L629 941L604 916z"/>
<path style="fill:#aba8bf; stroke:none;" d="M728 916L729 917L728 916M322 917L323 918L322 917z"/>
<path style="fill:#232b63; stroke:none;" d="M447 917L423 941L423 942L448 966L470 942L470 941L447 917z"/>
<path style="fill:#aba8bf; stroke:none;" d="M729 917L730 918L729 917M321 918L322 919L321 918M453 918L454 919L453 918M598 918L599 919L598 918M730 918L731 919L730 918M320 919L321 920L320 919z"/>
<path style="fill:#7f7b9b; stroke:none;" d="M448 919L449 920L448 919z"/>
<path style="fill:#aba8bf; stroke:none;" d="M454 919L455 920L454 919M597 919L598 920L597 919z"/>
<path style="fill:#7f7b9b; stroke:none;" d="M603 919L604 920L603 919z"/>
<path style="fill:#aba8bf; stroke:none;" d="M731 919L732 920L731 919M319 920L320 921L319 920M449 920L450 921L449 920M455 920L456 921L455 920M596 920L597 921L596 920M602 920L603 921L602 920M732 920L733 921L732 920M318 921L319 922L318 921M450 921L451 922L450 921M456 921L457 922L456 921M595 921L596 922L595 921M601 921L602 922L601 921M733 921L734 922L733 921M317 922L318 923L317 922M451 922L452 923L451 922M457 922L458 923L457 922M594 922L595 923L594 922M600 922L601 923L600 922M734 922L735 923L734 922M316 923L317 924L316 923M452 923L453 924L452 923M458 923L459 924L458 923M491 923L492 924L491 923M560 923L561 924L560 923M593 923L594 924L593 923M599 923L600 924L599 923M735 923L736 924L735 923M315 924L316 925L315 924M453 924L454 925L453 924M459 924L460 925L459 924M490 924L491 925L490 924M561 924L562 925L561 924M592 924L593 925L592 924M598 924L599 925L598 924M736 924L737 925L736 924M314 925L315 926L314 925M454 925L455 926L454 925M460 925L461 926L460 925M489 925L490 926L489 925M562 925L563 926L562 925M591 925L592 926L591 925M597 925L598 926L597 925M737 925L738 926L737 925M313 926L314 927L313 926M455 926L456 927L455 926M461 926L462 927L461 926M488 926L489 927L488 926M563 926L564 927L563 926M590 926L591 927L590 926M596 926L597 927L596 926M738 926L739 927L738 926M312 927L313 928L312 927M456 927L457 928L456 927M462 927L463 928L462 927M487 927L488 928L487 927M564 927L565 928L564 927M589 927L590 928L589 927M595 927L596 928L595 927M739 927L740 928L739 927M311 928L312 929L311 928M457 928L458 929L457 928M463 928L464 929L463 928M486 928L487 929L486 928M565 928L566 929L565 928M588 928L589 929L588 928M594 928L595 929L594 928M740 928L741 929L740 928M310 929L311 930L310 929M458 929L459 930L458 929M464 929L465 930L464 929M485 929L486 930L485 929M566 929L567 930L566 929M587 929L588 930L587 929M593 929L594 930L593 929M741 929L742 930L741 929M309 930L310 931L309 930M459 930L460 931L459 930M465 930L466 931L465 930M484 930L485 931L484 930M567 930L568 931L567 930M586 930L587 931L586 930M592 930L593 931L592 930M742 930L743 931L742 930M308 931L309 932L308 931M460 931L461 932L460 931M466 931L467 932L466 931M483 931L484 932L483 931M568 931L569 932L568 931M585 931L586 932L585 931M591 931L592 932L591 931M743 931L744 932L743 931M307 932L308 933L307 932M461 932L462 933L461 932M467 932L468 933L467 932M482 932L483 933L482 932M569 932L570 933L569 932M584 932L585 933L584 932M590 932L591 933L590 932M744 932L745 933L744 932M306 933L307 934L306 933M462 933L463 934L462 933M468 933L469 934L468 933M481 933L482 934L481 933M570 933L571 934L570 933M583 933L584 934L583 933M589 933L590 934L589 933M745 933L746 934L745 933M305 934L306 935L305 934M463 934L464 935L463 934M469 934L470 935L469 934M480 934L481 935L480 934M571 934L572 935L571 934M582 934L583 935L582 934M588 934L589 935L588 934M746 934L747 935L746 934M304 935L305 936L304 935M464 935L465 936L464 935M470 935L471 936L470 935M479 935L480 936L479 935M572 935L573 936L572 935M581 935L582 936L581 935M587 935L588 936L587 935M747 935L748 936L747 935M303 936L304 937L303 936M465 936L466 937L465 936M471 936L472 937L471 936M478 936L479 937L478 936M573 936L574 937L573 936M580 936L581 937L580 936M586 936L587 937L586 936M748 936L749 937L748 936M302 937L303 938L302 937M466 937L467 938L466 937M472 937L473 938L472 937M477 937L478 938L477 937M574 937L575 938L574 937M579 937L580 938L579 937M585 937L586 938L585 937M749 937L750 938L749 937M301 938L302 939L301 938M467 938L468 939L467 938M473 938L474 939L473 938M476 938L477 939L476 938M575 938L576 939L575 938M578 938L579 939L578 938M584 938L585 939L584 938z"/>
<path style="fill:#67658c; stroke:none;" d="M626 938L627 939L626 938z"/>
<path style="fill:#aba8bf; stroke:none;" d="M750 938L751 939L750 938M300 939L301 940L300 939M468 939L469 940L468 939M474.667 939.333L475.333 939.667L474.667 939.333M576.667 939.333L577.333 939.667L576.667 939.333M583 939L584 940L583 939z"/>
<path style="fill:#67658c; stroke:none;" d="M627 939L628 940L627 939z"/>
<path style="fill:#aba8bf; stroke:none;" d="M751 939L752 940L751 939M299 940L300 941L299 940M469 940L470 941L469 940M582 940L583 941L582 940z"/>
<path style="fill:#67658c; stroke:none;" d="M628 940L629 941L628 940z"/>
<path style="fill:#aba8bf; stroke:none;" d="M752 940L753 941L752 940M416 941L417 942L416 941M422 941L423 942L422 941M470 941L471 942L470 941M629 941L630 942L629 941M635 941L636 942L635 941z"/>
<path style="fill:#67658c; stroke:none;" d="M753 941L754 942L753 941M299 942L300 943L299 942z"/>
<path style="fill:#aba8bf; stroke:none;" d="M417 942L418 943L417 942M423 942L424 943L423 942M469 942L470 943L469 942M582 942L583 943L582 942z"/>
<path style="fill:#67658c; stroke:none;" d="M628 942L629 943L628 942z"/>
<path style="fill:#aba8bf; stroke:none;" d="M634 942L635 943L634 942z"/>
<path style="fill:#67658c; stroke:none;" d="M752 942L753 943L752 942M300 943L301 944L300 943z"/>
<path style="fill:#aba8bf; stroke:none;" d="M418 943L419 944L418 943M424 943L425 944L424 943M468 943L469 944L468 943M452 972L453 972C453.297 962.857 461.909 957.009 468 951.002C469.996 949.033 472.772 945.359 476 946.207C481.492 947.649 486.329 955.709 491 959C488.12 954.911 480.49 944.207 475 944.207C471.497 944.207 468.227 948.778 466 951C459.669 957.318 452.113 962.468 452 972M561 959L577 946.056L597 963C593.658 958.256 583.237 944.207 577 944.207C571.51 944.207 563.88 954.911 561 959M583 943L584 944L583 943z"/>
<path style="fill:#67658c; stroke:none;" d="M627 943L628 944L627 943z"/>
<path style="fill:#aba8bf; stroke:none;" d="M633 943L634 944L633 943z"/>
<path style="fill:#67658c; stroke:none;" d="M751 943L752 944L751 943M301 944L302 945L301 944z"/>
<path style="fill:#aba8bf; stroke:none;" d="M419 944L420 945L419 944M425 944L426 945L425 944M467 944L468 945L467 944z"/>
<path style="fill:#232b63; stroke:none;" d="M524 993L524 992C512.956 980.956 507 975.837 507 960C501.464 960 494.683 961.191 490 957.682C485.947 954.645 480.468 945.207 475 945.207C468.441 945.207 451.15 964.26 453.608 970.981C458.026 983.06 481.261 971.408 489.682 977.028C492.516 978.919 491.994 983.054 492 986C492.019 995.2 489.975 1025.48 507 1009.94C509.422 1007.73 511.681 1005.32 514 1003L524 993M545 960C545 975.837 539.044 980.956 528 992L528 993C533.863 998.863 547.16 1018.31 556.941 1012.97C565.073 1008.54 561 984.13 561 976C569.51 976 588.892 979.6 595.852 974.397C605.389 967.266 585.175 947.134 578 945.346C572.491 943.972 565.882 954.773 562 957.682C557.317 961.191 550.536 960 545 960z"/>
<path style="fill:#aba8bf; stroke:none;" d="M584 944L585 945L584 944z"/>
<path style="fill:#67658c; stroke:none;" d="M626 944L627 945L626 944z"/>
<path style="fill:#aba8bf; stroke:none;" d="M632 944L633 945L632 944z"/>
<path style="fill:#67658c; stroke:none;" d="M750 944L751 945L750 944M302 945L303 946L302 945z"/>
<path style="fill:#aba8bf; stroke:none;" d="M420 945L421 946L420 945z"/>
<path style="fill:#7f7b9b; stroke:none;" d="M426 945L427 946L426 945z"/>
<path style="fill:#aba8bf; stroke:none;" d="M466 945L467 946L466 945M585 945L586 946L585 945z"/>
<path style="fill:#67658c; stroke:none;" d="M625 945L626 946L625 945z"/>
<path style="fill:#aba8bf; stroke:none;" d="M631 945L632 946L631 945z"/>
<path style="fill:#67658c; stroke:none;" d="M749 945L750 946L749 945M303 946L304 947L303 946z"/>
<path style="fill:#aba8bf; stroke:none;" d="M421 946L422 947L421 946z"/>
<path style="fill:#7f7b9b; stroke:none;" d="M427 946L428 947L427 946z"/>
<path style="fill:#aba8bf; stroke:none;" d="M465 946L466 947L465 946M586 946L587 947L586 946z"/>
<path style="fill:#67658c; stroke:none;" d="M624 946L625 947L624 946z"/>
<path style="fill:#aba8bf; stroke:none;" d="M630 946L631 947L630 946z"/>
<path style="fill:#67658c; stroke:none;" d="M748 946L749 947L748 946M304 947L305 948L304 947z"/>
<path style="fill:#aba8bf; stroke:none;" d="M422 947L423 948L422 947z"/>
<path style="fill:#67658c; stroke:none;" d="M428 947L429 948L428 947z"/>
<path style="fill:#aba8bf; stroke:none;" d="M464 947L465 948L464 947M587 947L588 948L587 947z"/>
<path style="fill:#67658c; stroke:none;" d="M623 947L624 948L623 947z"/>
<path style="fill:#aba8bf; stroke:none;" d="M629 947L630 948L629 947z"/>
<path style="fill:#67658c; stroke:none;" d="M747 947L748 948L747 947M305 948L306 949L305 948z"/>
<path style="fill:#aba8bf; stroke:none;" d="M423 948L424 949L423 948z"/>
<path style="fill:#67658c; stroke:none;" d="M429 948L430 949L429 948z"/>
<path style="fill:#aba8bf; stroke:none;" d="M463 948L464 949L463 948M588 948L589 949L588 948z"/>
<path style="fill:#67658c; stroke:none;" d="M622 948L623 949L622 948z"/>
<path style="fill:#aba8bf; stroke:none;" d="M628 948L629 949L628 948z"/>
<path style="fill:#67658c; stroke:none;" d="M746 948L747 949L746 948M306 949L307 950L306 949z"/>
<path style="fill:#aba8bf; stroke:none;" d="M424 949L425 950L424 949z"/>
<path style="fill:#67658c; stroke:none;" d="M430 949L431 950L430 949z"/>
<path style="fill:#aba8bf; stroke:none;" d="M462 949L463 950L462 949M589 949L590 950L589 949z"/>
<path style="fill:#67658c; stroke:none;" d="M621 949L622 950L621 949z"/>
<path style="fill:#aba8bf; stroke:none;" d="M627 949L628 950L627 949z"/>
<path style="fill:#67658c; stroke:none;" d="M745 949L746 950L745 949M307 950L308 951L307 950z"/>
<path style="fill:#aba8bf; stroke:none;" d="M425 950L426 951L425 950z"/>
<path style="fill:#67658c; stroke:none;" d="M431 950L432 951L431 950z"/>
<path style="fill:#aba8bf; stroke:none;" d="M461 950L462 951L461 950M590 950L591 951L590 950z"/>
<path style="fill:#67658c; stroke:none;" d="M620 950L621 951L620 950z"/>
<path style="fill:#aba8bf; stroke:none;" d="M626 950L627 951L626 950z"/>
<path style="fill:#67658c; stroke:none;" d="M744 950L745 951L744 950M308 951L309 952L308 951z"/>
<path style="fill:#aba8bf; stroke:none;" d="M426 951L427 952L426 951z"/>
<path style="fill:#67658c; stroke:none;" d="M432 951L433 952L432 951z"/>
<path style="fill:#aba8bf; stroke:none;" d="M460 951L461 952L460 951M591 951L592 952L591 951z"/>
<path style="fill:#67658c; stroke:none;" d="M619 951L620 952L619 951z"/>
<path style="fill:#aba8bf; stroke:none;" d="M625 951L626 952L625 951z"/>
<path style="fill:#67658c; stroke:none;" d="M743 951L744 952L743 951M309 952L310 953L309 952z"/>
<path style="fill:#aba8bf; stroke:none;" d="M427 952L428 953L427 952z"/>
<path style="fill:#67658c; stroke:none;" d="M433 952L434 953L433 952z"/>
<path style="fill:#aba8bf; stroke:none;" d="M459 952L460 953L459 952M592 952L593 953L592 952z"/>
<path style="fill:#67658c; stroke:none;" d="M618 952L619 953L618 952z"/>
<path style="fill:#aba8bf; stroke:none;" d="M624 952L625 953L624 952z"/>
<path style="fill:#67658c; stroke:none;" d="M742 952L743 953L742 952M310 953L311 954L310 953z"/>
<path style="fill:#aba8bf; stroke:none;" d="M428 953L429 954L428 953z"/>
<path style="fill:#67658c; stroke:none;" d="M434 953L435 954L434 953z"/>
<path style="fill:#aba8bf; stroke:none;" d="M458 953L459 954L458 953M593 953L594 954L593 953z"/>
<path style="fill:#67658c; stroke:none;" d="M617 953L618 954L617 953z"/>
<path style="fill:#aba8bf; stroke:none;" d="M623 953L624 954L623 953z"/>
<path style="fill:#67658c; stroke:none;" d="M741 953L742 954L741 953M311 954L312 955L311 954z"/>
<path style="fill:#aba8bf; stroke:none;" d="M429 954L430 955L429 954z"/>
<path style="fill:#67658c; stroke:none;" d="M435 954L436 955L435 954z"/>
<path style="fill:#aba8bf; stroke:none;" d="M457 954L458 955L457 954M594 954L595 955L594 954z"/>
<path style="fill:#67658c; stroke:none;" d="M616 954L617 955L616 954z"/>
<path style="fill:#aba8bf; stroke:none;" d="M622 954L623 955L622 954z"/>
<path style="fill:#67658c; stroke:none;" d="M740 954L741 955L740 954M312 955L313 956L312 955z"/>
<path style="fill:#aba8bf; stroke:none;" d="M430 955L431 956L430 955z"/>
<path style="fill:#67658c; stroke:none;" d="M436 955L437 956L436 955z"/>
<path style="fill:#aba8bf; stroke:none;" d="M456 955L457 956L456 955M595 955L596 956L595 955z"/>
<path style="fill:#67658c; stroke:none;" d="M615 955L616 956L615 955z"/>
<path style="fill:#aba8bf; stroke:none;" d="M621 955L622 956L621 955z"/>
<path style="fill:#67658c; stroke:none;" d="M739 955L740 956L739 955M313 956L314 957L313 956z"/>
<path style="fill:#aba8bf; stroke:none;" d="M431 956L432 957L431 956z"/>
<path style="fill:#67658c; stroke:none;" d="M437 956L438 957L437 956z"/>
<path style="fill:#aba8bf; stroke:none;" d="M455 956L456 957L455 956M596 956L597 957L596 956z"/>
<path style="fill:#67658c; stroke:none;" d="M614 956L615 957L614 956z"/>
<path style="fill:#aba8bf; stroke:none;" d="M620 956L621 957L620 956z"/>
<path style="fill:#67658c; stroke:none;" d="M738 956L739 957L738 956M314 957L315 958L314 957z"/>
<path style="fill:#aba8bf; stroke:none;" d="M432 957L433 958L432 957z"/>
<path style="fill:#67658c; stroke:none;" d="M438 957L439 958L438 957z"/>
<path style="fill:#aba8bf; stroke:none;" d="M454 957L455 958L454 957M597 957L598 958L597 957z"/>
<path style="fill:#67658c; stroke:none;" d="M613 957L614 958L613 957z"/>
<path style="fill:#aba8bf; stroke:none;" d="M619 957L620 958L619 957z"/>
<path style="fill:#67658c; stroke:none;" d="M737 957L738 958L737 957M315 958L316 959L315 958z"/>
<path style="fill:#aba8bf; stroke:none;" d="M433 958L434 959L433 958z"/>
<path style="fill:#67658c; stroke:none;" d="M439 958L440 959L439 958z"/>
<path style="fill:#aba8bf; stroke:none;" d="M453 958L454 959L453 958M598 958L599 959L598 958z"/>
<path style="fill:#67658c; stroke:none;" d="M612 958L613 959L612 958z"/>
<path style="fill:#aba8bf; stroke:none;" d="M618 958L619 959L618 958z"/>
<path style="fill:#67658c; stroke:none;" d="M736 958L737 959L736 958M316 959L317 960L316 959z"/>
<path style="fill:#aba8bf; stroke:none;" d="M434 959L435 960L434 959z"/>
<path style="fill:#67658c; stroke:none;" d="M440 959L441 960L440 959z"/>
<path style="fill:#aba8bf; stroke:none;" d="M452 959L453 960L452 959z"/>
<path style="fill:#7f7b9b; stroke:none;" d="M491 959L492 960L491 959z"/>
<path style="fill:#aba8bf; stroke:none;" d="M492 959L492 960L508 960L492 959M544 959L544 960L560 960L544 959z"/>
<path style="fill:#7f7b9b; stroke:none;" d="M560 959L561 960L560 959z"/>
<path style="fill:#aba8bf; stroke:none;" d="M599 959L600 960L599 959z"/>
<path style="fill:#67658c; stroke:none;" d="M611 959L612 960L611 959z"/>
<path style="fill:#aba8bf; stroke:none;" d="M617 959L618 960L617 959z"/>
<path style="fill:#67658c; stroke:none;" d="M735 959L736 960L735 959M317 960L318 961L317 960z"/>
<path style="fill:#aba8bf; stroke:none;" d="M435 960L436 961L435 960z"/>
<path style="fill:#67658c; stroke:none;" d="M441 960L442 961L441 960z"/>
<path style="fill:#aba8bf; stroke:none;" d="M451 960L452 961L451 960z"/>
<path style="fill:#67658c; stroke:none;" d="M507 960L507 976L508 976L507 960M544 960L544 976L545 976L544 960z"/>
<path style="fill:#aba8bf; stroke:none;" d="M600 960L601 961L600 960z"/>
<path style="fill:#67658c; stroke:none;" d="M610 960L611 961L610 960z"/>
<path style="fill:#aba8bf; stroke:none;" d="M616 960L617 961L616 960z"/>
<path style="fill:#67658c; stroke:none;" d="M734 960L735 961L734 960M318 961L319 962L318 961z"/>
<path style="fill:#aba8bf; stroke:none;" d="M436 961L437 962L436 961z"/>
<path style="fill:#67658c; stroke:none;" d="M442 961L443 962L442 961z"/>
<path style="fill:#aba8bf; stroke:none;" d="M450 961L451 962L450 961M601 961L602 962L601 961z"/>
<path style="fill:#67658c; stroke:none;" d="M609 961L610 962L609 961z"/>
<path style="fill:#aba8bf; stroke:none;" d="M615 961L616 962L615 961z"/>
<path style="fill:#67658c; stroke:none;" d="M733 961L734 962L733 961M319 962L320 963L319 962z"/>
<path style="fill:#aba8bf; stroke:none;" d="M437 962L438 963L437 962z"/>
<path style="fill:#67658c; stroke:none;" d="M443 962L444 963L443 962z"/>
<path style="fill:#aba8bf; stroke:none;" d="M449 962L450 963L449 962M602 962L603 963L602 962z"/>
<path style="fill:#67658c; stroke:none;" d="M608 962L609 963L608 962z"/>
<path style="fill:#aba8bf; stroke:none;" d="M614 962L615 963L614 962z"/>
<path style="fill:#67658c; stroke:none;" d="M732 962L733 963L732 962M320 963L321 964L320 963z"/>
<path style="fill:#aba8bf; stroke:none;" d="M438 963L439 964L438 963z"/>
<path style="fill:#67658c; stroke:none;" d="M444 963L445 964L444 963z"/>
<path style="fill:#7f7b9b; stroke:none;" d="M448 963L449 964L448 963M597 963L598 964L597 963z"/>
<path style="fill:#aba8bf; stroke:none;" d="M603 963L603 967L604 967L603 963z"/>
<path style="fill:#67658c; stroke:none;" d="M607 963L608 964L607 963z"/>
<path style="fill:#aba8bf; stroke:none;" d="M613 963L614 964L613 963z"/>
<path style="fill:#67658c; stroke:none;" d="M731 963L732 964L731 963M321 964L322 965L321 964z"/>
<path style="fill:#aba8bf; stroke:none;" d="M439 964L440 965L439 964z"/>
<path style="fill:#67658c; stroke:none;" d="M445 964L446 965L445 964z"/>
<path style="fill:#aba8bf; stroke:none;" d="M448 964L448 967L449 967L448 964M598 964L599 965L598 964z"/>
<path style="fill:#67658c; stroke:none;" d="M606 964L607 965L606 964z"/>
<path style="fill:#aba8bf; stroke:none;" d="M612 964L613 965L612 964z"/>
<path style="fill:#67658c; stroke:none;" d="M730 964L731 965L730 964M322 965L323 966L322 965z"/>
<path style="fill:#aba8bf; stroke:none;" d="M440 965L441 966L440 965z"/>
<path style="fill:#67658c; stroke:none;" d="M446 965L447 966L446 965z"/>
<path style="fill:#aba8bf; stroke:none;" d="M599 965L599 972L600 972L599 965z"/>
<path style="fill:#67658c; stroke:none;" d="M605 965L606 966L605 965z"/>
<path style="fill:#aba8bf; stroke:none;" d="M611 965L612 966L611 965z"/>
<path style="fill:#67658c; stroke:none;" d="M729 965L730 966L729 965M323 966L324 967L323 966z"/>
<path style="fill:#aba8bf; stroke:none;" d="M441 966L442 967L441 966z"/>
<path style="fill:#67658c; stroke:none;" d="M447 966L448 967L447 966M604 966L605 967L604 966z"/>
<path style="fill:#aba8bf; stroke:none;" d="M610 966L611 967L610 966z"/>
<path style="fill:#67658c; stroke:none;" d="M728 966L729 967L728 966M324 967L325 968L324 967z"/>
<path style="fill:#aba8bf; stroke:none;" d="M442 967L443 968L442 967M609 967L610 968L609 967z"/>
<path style="fill:#67658c; stroke:none;" d="M727 967L728 968L727 967M325 968L326 969L325 968z"/>
<path style="fill:#aba8bf; stroke:none;" d="M443 968L444 969L443 968M608 968L609 969L608 968z"/>
<path style="fill:#67658c; stroke:none;" d="M726 968L727 969L726 968M326 969L327 970L326 969z"/>
<path style="fill:#aba8bf; stroke:none;" d="M444 969L445 970L444 969M607 969L608 970L607 969z"/>
<path style="fill:#67658c; stroke:none;" d="M725 969L726 970L725 969M327 970L328 971L327 970z"/>
<path style="fill:#aba8bf; stroke:none;" d="M445 970L446 971L445 970M606 970L607 971L606 970z"/>
<path style="fill:#67658c; stroke:none;" d="M724 970L725 971L724 970M328 971L329 972L328 971z"/>
<path style="fill:#aba8bf; stroke:none;" d="M446 971L447 972L446 971M605 971L606 972L605 971z"/>
<path style="fill:#67658c; stroke:none;" d="M723 971L724 972L723 971M329 972L330 973L329 972z"/>
<path style="fill:#aba8bf; stroke:none;" d="M447 972L448 973L447 972z"/>
<path style="fill:#67658c; stroke:none;" d="M453 972L454 973L453 972M598 972L599 973L598 972z"/>
<path style="fill:#aba8bf; stroke:none;" d="M604 972L605 973L604 972z"/>
<path style="fill:#67658c; stroke:none;" d="M722 972L723 973L722 972M330 973L331 974L330 973M454 973L455 974L454 973M597 973L598 974L597 973M721 973L722 974L721 973M331 974L332 975L331 974z"/>
<path style="fill:#aba8bf; stroke:none;" d="M448 974L448 1019L449 1019C449 1006.26 452.91 985.701 448 974z"/>
<path style="fill:#67658c; stroke:none;" d="M455 974L456 975L455 974M596 974L597 975L596 974z"/>
<path style="fill:#aba8bf; stroke:none;" d="M603 974L603 1019L604 1019C604 1006.26 607.91 985.701 603 974z"/>
<path style="fill:#67658c; stroke:none;" d="M720 974L721 975L720 974M332 975L333 976L332 975M456 975L457 976L456 975M595 975L596 976L595 975M719 975L720 976L719 975M333 976L334 977L333 976z"/>
<path style="fill:#aba8bf; stroke:none;" d="M457 976L457 977L491 977L457 976M508 976L509 977L508 976M543 976L544 977L543 976M561 976L561 977L595 977L561 976z"/>
<path style="fill:#67658c; stroke:none;" d="M718 976L719 977L718 976M334 977L335 978L334 977M491 977L491 1011L492 1011L491 977z"/>
<path style="fill:#aba8bf; stroke:none;" d="M509 977L510 978L509 977M542 977L543 978L542 977z"/>
<path style="fill:#67658c; stroke:none;" d="M717 977L718 978L717 977M335 978L336 979L335 978z"/>
<path style="fill:#aba8bf; stroke:none;" d="M452 978L452 1015L453 1015L453 979C461.967 983.785 476.956 981 487 981L487 980L452 978M510 978L511 979L510 978M541 978L542 979L541 978M565 980L565 981C575.044 981 590.033 983.785 599 979L599 1015L600 1015L600 978L565 980z"/>
<path style="fill:#67658c; stroke:none;" d="M716 978L717 979L716 978M336 979L337 980L336 979z"/>
<path style="fill:#232b63; stroke:none;" d="M453 979L453 1014L488 1014C483.889 1004.3 486 991.404 486 981C475.596 981 462.702 983.111 453 979z"/>
<path style="fill:#aba8bf; stroke:none;" d="M511 979L512 980L511 979M540 979L541 980L540 979z"/>
<path style="fill:#232b63; stroke:none;" d="M598 979C589.451 983.562 575.563 981 566 981C566 991.404 568.111 1004.3 564 1014L599 1014L598 979z"/>
<path style="fill:#67658c; stroke:none;" d="M715 979L716 980L715 979M337 980L338 981L337 980z"/>
<path style="fill:#aba8bf; stroke:none;" d="M512 980L513 981L512 980M539 980L540 981L539 980z"/>
<path style="fill:#67658c; stroke:none;" d="M714 980L715 981L714 980M338 981L339 982L338 981M486 981L486 1012L487 1012L486 981z"/>
<path style="fill:#aba8bf; stroke:none;" d="M513 981L514 982L513 981M538 981L539 982L538 981z"/>
<path style="fill:#67658c; stroke:none;" d="M565 981L565 1012L566 1012L565 981M713 981L714 982L713 981M339 982L340 983L339 982z"/>
<path style="fill:#aba8bf; stroke:none;" d="M514 982L515 983L514 982M537 982L538 983L537 982z"/>
<path style="fill:#67658c; stroke:none;" d="M712 982L713 983L712 982M340 983L341 984L340 983z"/>
<path style="fill:#aba8bf; stroke:none;" d="M515 983L516 984L515 983M536 983L537 984L536 983z"/>
<path style="fill:#67658c; stroke:none;" d="M711 983L712 984L711 983M341 984L342 985L341 984z"/>
<path style="fill:#aba8bf; stroke:none;" d="M516 984L517 985L516 984M535 984L536 985L535 984z"/>
<path style="fill:#67658c; stroke:none;" d="M710 984L711 985L710 984M342 985L343 986L342 985z"/>
<path style="fill:#aba8bf; stroke:none;" d="M517 985L518 986L517 985M534 985L535 986L534 985z"/>
<path style="fill:#67658c; stroke:none;" d="M709 985L710 986L709 985M343 986L344 987L343 986z"/>
<path style="fill:#aba8bf; stroke:none;" d="M518 986L519 987L518 986M533 986L534 987L533 986z"/>
<path style="fill:#67658c; stroke:none;" d="M708 986L709 987L708 986M344 987L345 988L344 987z"/>
<path style="fill:#aba8bf; stroke:none;" d="M519 987L520 988L519 987M532 987L533 988L532 987z"/>
<path style="fill:#67658c; stroke:none;" d="M707 987L708 988L707 987M345 988L346 989L345 988z"/>
<path style="fill:#aba8bf; stroke:none;" d="M520 988L521 989L520 988M531 988L532 989L531 988z"/>
<path style="fill:#67658c; stroke:none;" d="M706 988L707 989L706 988M346 989L347 990L346 989z"/>
<path style="fill:#aba8bf; stroke:none;" d="M521 989L522 990L521 989M530 989L531 990L530 989z"/>
<path style="fill:#67658c; stroke:none;" d="M705 989L706 990L705 989M347 990L348 991L347 990z"/>
<path style="fill:#aba8bf; stroke:none;" d="M522 990L523 991L522 990M529 990L530 991L529 990z"/>
<path style="fill:#67658c; stroke:none;" d="M704 990L705 991L704 990M348 991L349 992L348 991z"/>
<path style="fill:#aba8bf; stroke:none;" d="M523 991L524 992L523 991M528 991L529 992L528 991z"/>
<path style="fill:#67658c; stroke:none;" d="M703 991L704 992L703 991M349 992L350 993L349 992M702 992L703 993L702 992M350 993L351 994L350 993z"/>
<path style="fill:#aba8bf; stroke:none;" d="M523 993L524 994L523 993M528 993L529 994L528 993z"/>
<path style="fill:#67658c; stroke:none;" d="M701 993L702 994L701 993M351 994L352 995L351 994z"/>
<path style="fill:#aba8bf; stroke:none;" d="M522 994L523 995L522 994M529 994L530 995L529 994z"/>
<path style="fill:#67658c; stroke:none;" d="M700 994L701 995L700 994M352 995L353 996L352 995z"/>
<path style="fill:#aba8bf; stroke:none;" d="M521 995L522 996L521 995M530 995L531 996L530 995z"/>
<path style="fill:#67658c; stroke:none;" d="M699 995L700 996L699 995M353 996L354 997L353 996z"/>
<path style="fill:#aba8bf; stroke:none;" d="M520 996L521 997L520 996M531 996L532 997L531 996z"/>
<path style="fill:#67658c; stroke:none;" d="M698 996L699 997L698 996M354 997L355 998L354 997z"/>
<path style="fill:#aba8bf; stroke:none;" d="M519 997L520 998L519 997M504 1019L526 1000.06L548 1019C544.435 1013.94 532.59 998.207 526 998.207C519.41 998.207 507.565 1013.94 504 1019M532 997L533 998L532 997z"/>
<path style="fill:#67658c; stroke:none;" d="M697 997L698 998L697 997M355 998L356 999L355 998z"/>
<path style="fill:#aba8bf; stroke:none;" d="M518 998L519 999L518 998z"/>
<path style="fill:#232b63; stroke:none;" d="M502 1020C505.784 1025.37 519.063 1042.79 526 1042.79C532.937 1042.79 546.216 1025.37 550 1020C543.892 1015.7 533.509 999.207 526 999.207C518.491 999.207 508.108 1015.7 502 1020z"/>
<path style="fill:#aba8bf; stroke:none;" d="M533 998L534 999L533 998z"/>
<path style="fill:#67658c; stroke:none;" d="M696 998L697 999L696 998M356 999L357 1000L356 999z"/>
<path style="fill:#aba8bf; stroke:none;" d="M517 999L518 1000L517 999M534 999L535 1000L534 999z"/>
<path style="fill:#67658c; stroke:none;" d="M695 999L696 1000L695 999M357 1000L358 1001L357 1000z"/>
<path style="fill:#aba8bf; stroke:none;" d="M516 1000L517 1001L516 1000M535 1000L536 1001L535 1000z"/>
<path style="fill:#67658c; stroke:none;" d="M694 1000L695 1001L694 1000M358 1001L359 1002L358 1001z"/>
<path style="fill:#aba8bf; stroke:none;" d="M515 1001L516 1002L515 1001M536 1001L537 1002L536 1001z"/>
<path style="fill:#67658c; stroke:none;" d="M693 1001L694 1002L693 1001M359 1002L360 1003L359 1002z"/>
<path style="fill:#aba8bf; stroke:none;" d="M514 1002L515 1003L514 1002M537 1002L538 1003L537 1002z"/>
<path style="fill:#67658c; stroke:none;" d="M692 1002L693 1003L692 1002M360 1003L361 1004L360 1003z"/>
<path style="fill:#aba8bf; stroke:none;" d="M513 1003L514 1004L513 1003M538 1003L539 1004L538 1003z"/>
<path style="fill:#67658c; stroke:none;" d="M691 1003L692 1004L691 1003M361 1004L362 1005L361 1004z"/>
<path style="fill:#aba8bf; stroke:none;" d="M512 1004L513 1005L512 1004M539 1004L540 1005L539 1004z"/>
<path style="fill:#67658c; stroke:none;" d="M690 1004L691 1005L690 1004M362 1005L363 1006L362 1005z"/>
<path style="fill:#aba8bf; stroke:none;" d="M511 1005L512 1006L511 1005M540 1005L541 1006L540 1005z"/>
<path style="fill:#67658c; stroke:none;" d="M689 1005L690 1006L689 1005M363 1006L364 1007L363 1006z"/>
<path style="fill:#aba8bf; stroke:none;" d="M510 1006L511 1007L510 1006M541 1006L542 1007L541 1006z"/>
<path style="fill:#67658c; stroke:none;" d="M688 1006L689 1007L688 1006M364 1007L365 1008L364 1007z"/>
<path style="fill:#aba8bf; stroke:none;" d="M509 1007L510 1008L509 1007M542 1007L543 1008L542 1007z"/>
<path style="fill:#67658c; stroke:none;" d="M687 1007L688 1008L687 1007M365 1008L366 1009L365 1008z"/>
<path style="fill:#aba8bf; stroke:none;" d="M508 1008L509 1009L508 1008M543 1008L544 1009L543 1008z"/>
<path style="fill:#67658c; stroke:none;" d="M686 1008L687 1009L686 1008M366 1009L367 1010L366 1009z"/>
<path style="fill:#aba8bf; stroke:none;" d="M507 1009L508 1010L507 1009M544 1009L545 1010L544 1009z"/>
<path style="fill:#67658c; stroke:none;" d="M685 1009L686 1010L685 1009M367 1010L368 1011L367 1010z"/>
<path style="fill:#aba8bf; stroke:none;" d="M506 1010L507 1011L506 1010M545 1010L546 1011L545 1010z"/>
<path style="fill:#67658c; stroke:none;" d="M560 1010L561 1011L560 1010M684 1010L685 1011L684 1010M368 1011L369 1012L368 1011M492 1011L493 1012L492 1011z"/>
<path style="fill:#aba8bf; stroke:none;" d="M505 1011L506 1012L505 1011M546 1011L547 1012L546 1011z"/>
<path style="fill:#67658c; stroke:none;" d="M559 1011L560 1012L559 1011M683 1011L684 1012L683 1011M369 1012L370 1013L369 1012z"/>
<path style="fill:#aba8bf; stroke:none;" d="M487 1012L488 1013L487 1012z"/>
<path style="fill:#67658c; stroke:none;" d="M493 1012L494 1013L493 1012z"/>
<path style="fill:#aba8bf; stroke:none;" d="M504 1012L505 1013L504 1012M547 1012L548 1013L547 1012z"/>
<path style="fill:#67658c; stroke:none;" d="M558 1012L559 1013L558 1012z"/>
<path style="fill:#aba8bf; stroke:none;" d="M564 1012L565 1013L564 1012z"/>
<path style="fill:#67658c; stroke:none;" d="M682 1012L683 1013L682 1012M370 1013L371 1014L370 1013z"/>
<path style="fill:#aba8bf; stroke:none;" d="M488 1013L489 1014L488 1013z"/>
<path style="fill:#67658c; stroke:none;" d="M494 1013L495 1014L494 1013z"/>
<path style="fill:#aba8bf; stroke:none;" d="M503 1013L504 1014L503 1013M548 1013L549 1014L548 1013z"/>
<path style="fill:#67658c; stroke:none;" d="M557 1013L558 1014L557 1013z"/>
<path style="fill:#aba8bf; stroke:none;" d="M563 1013L564 1014L563 1013z"/>
<path style="fill:#67658c; stroke:none;" d="M681 1013L682 1014L681 1013M371 1014L372 1015L371 1014M453 1014L453 1015L489 1015C479.441 1010.99 463.387 1014 453 1014M495 1014L495 1015L502 1015L495 1014z"/>
<path style="fill:#aba8bf; stroke:none;" d="M502 1014L503 1015L502 1014M549 1014L550 1015L549 1014z"/>
<path style="fill:#67658c; stroke:none;" d="M550 1014L550 1015L557 1015L550 1014M563 1014L563 1015L599 1015C589.441 1010.99 573.387 1014 563 1014M680 1014L681 1015L680 1014M372 1015L373 1016L372 1015M679 1015L680 1016L679 1015M373 1016L374 1017L373 1016M678 1016L679 1017L678 1016M374 1017L375 1018L374 1017M677 1017L678 1018L677 1017M375 1018L376 1019L375 1018M676 1018L677 1019L676 1018M376 1019L377 1020L376 1019M449 1019L449 1020L494 1020C482.299 1015.09 461.742 1019 449 1019z"/>
<path style="fill:#aba8bf; stroke:none;" d="M494 1019L495 1020L494 1019M500 1019L501 1020L500 1019z"/>
<path style="fill:#67658c; stroke:none;" d="M501 1021L504 1020L501 1021M548 1019L548 1020L551 1021L548 1019z"/>
<path style="fill:#aba8bf; stroke:none;" d="M551 1019L552 1020L551 1019M557 1019L558 1020L557 1019z"/>
<path style="fill:#67658c; stroke:none;" d="M558 1019L558 1020L603 1020C591.299 1015.09 570.742 1019 558 1019M675 1019L676 1020L675 1019M377 1020L378 1021L377 1020z"/>
<path style="fill:#7f7b9b; stroke:none;" d="M378 1020L378 1021L403 1021L378 1020z"/>
<path style="fill:#aba8bf; stroke:none;" d="M403 1020L404 1021L403 1020M495 1020L496 1021L495 1020M556 1020L557 1021L556 1020M648 1020L649 1021L648 1020z"/>
<path style="fill:#7f7b9b; stroke:none;" d="M649 1020L649 1021L674 1021L649 1020z"/>
<path style="fill:#67658c; stroke:none;" d="M674 1020L675 1021L674 1020M403 1021L403 1063L404 1063C404 1051.04 407.611 1031.99 403 1021z"/>
<path style="fill:#aba8bf; stroke:none;" d="M496 1021L497 1022L496 1021z"/>
<path style="fill:#67658c; stroke:none;" d="M502 1021L503 1022L502 1021M549 1021L550 1022L549 1021z"/>
<path style="fill:#aba8bf; stroke:none;" d="M555 1021L556 1022L555 1021z"/>
<path style="fill:#67658c; stroke:none;" d="M648 1021L648 1063L649 1063C649 1051.04 652.611 1031.99 648 1021z"/>
<path style="fill:#aba8bf; stroke:none;" d="M497 1022L498 1023L497 1022z"/>
<path style="fill:#67658c; stroke:none;" d="M503 1022L504 1023L503 1022M548 1022L549 1023L548 1022z"/>
<path style="fill:#aba8bf; stroke:none;" d="M554 1022L555 1023L554 1022M498 1023L499 1024L498 1023z"/>
<path style="fill:#67658c; stroke:none;" d="M504 1023L505 1024L504 1023M547 1023L548 1024L547 1023z"/>
<path style="fill:#aba8bf; stroke:none;" d="M553 1023L554 1024L553 1023M499 1024L500 1025L499 1024z"/>
<path style="fill:#67658c; stroke:none;" d="M505 1024L506 1025L505 1024M546 1024L547 1025L546 1024z"/>
<path style="fill:#aba8bf; stroke:none;" d="M552 1024L553 1025L552 1024M500 1025L501 1026L500 1025z"/>
<path style="fill:#67658c; stroke:none;" d="M506 1025L507 1026L506 1025M545 1025L546 1026L545 1025z"/>
<path style="fill:#aba8bf; stroke:none;" d="M551 1025L552 1026L551 1025M501 1026L502 1027L501 1026z"/>
<path style="fill:#67658c; stroke:none;" d="M507 1026L508 1027L507 1026M544 1026L545 1027L544 1026z"/>
<path style="fill:#aba8bf; stroke:none;" d="M550 1026L551 1027L550 1026M502 1027L503 1028L502 1027z"/>
<path style="fill:#67658c; stroke:none;" d="M508 1027L509 1028L508 1027M543 1027L544 1028L543 1027z"/>
<path style="fill:#aba8bf; stroke:none;" d="M549 1027L550 1028L549 1027M503 1028L504 1029L503 1028z"/>
<path style="fill:#67658c; stroke:none;" d="M509 1028L510 1029L509 1028M542 1028L543 1029L542 1028z"/>
<path style="fill:#aba8bf; stroke:none;" d="M548 1028L549 1029L548 1028M504 1029L505 1030L504 1029z"/>
<path style="fill:#67658c; stroke:none;" d="M510 1029L511 1030L510 1029M541 1029L542 1030L541 1029z"/>
<path style="fill:#aba8bf; stroke:none;" d="M547 1029L548 1030L547 1029M505 1030L506 1031L505 1030z"/>
<path style="fill:#67658c; stroke:none;" d="M511 1030L512 1031L511 1030M540 1030L541 1031L540 1030z"/>
<path style="fill:#aba8bf; stroke:none;" d="M546 1030L547 1031L546 1030M506 1031L507 1032L506 1031z"/>
<path style="fill:#67658c; stroke:none;" d="M512 1031L513 1032L512 1031M539 1031L540 1032L539 1031z"/>
<path style="fill:#aba8bf; stroke:none;" d="M545 1031L546 1032L545 1031M507 1032L508 1033L507 1032z"/>
<path style="fill:#67658c; stroke:none;" d="M513 1032L514 1033L513 1032M538 1032L539 1033L538 1032z"/>
<path style="fill:#aba8bf; stroke:none;" d="M544 1032L545 1033L544 1032M508 1033L509 1034L508 1033z"/>
<path style="fill:#67658c; stroke:none;" d="M514 1033L515 1034L514 1033M537 1033L538 1034L537 1033z"/>
<path style="fill:#aba8bf; stroke:none;" d="M543 1033L544 1034L543 1033M509 1034L510 1035L509 1034z"/>
<path style="fill:#67658c; stroke:none;" d="M515 1034L516 1035L515 1034M536 1034L537 1035L536 1034z"/>
<path style="fill:#aba8bf; stroke:none;" d="M542 1034L543 1035L542 1034M510 1035L511 1036L510 1035z"/>
<path style="fill:#67658c; stroke:none;" d="M516 1035L517 1036L516 1035M535 1035L536 1036L535 1035z"/>
<path style="fill:#aba8bf; stroke:none;" d="M541 1035L542 1036L541 1035M511 1036L512 1037L511 1036z"/>
<path style="fill:#67658c; stroke:none;" d="M517 1036L518 1037L517 1036M534 1036L535 1037L534 1036z"/>
<path style="fill:#aba8bf; stroke:none;" d="M540 1036L541 1037L540 1036M512 1037L513 1038L512 1037z"/>
<path style="fill:#67658c; stroke:none;" d="M518 1037L519 1038L518 1037M533 1037L534 1038L533 1037z"/>
<path style="fill:#aba8bf; stroke:none;" d="M539 1037L540 1038L539 1037M513 1038L514 1039L513 1038z"/>
<path style="fill:#67658c; stroke:none;" d="M519 1038L520 1039L519 1038M532 1038L533 1039L532 1038z"/>
<path style="fill:#aba8bf; stroke:none;" d="M538 1038L539 1039L538 1038M514 1039L515 1040L514 1039z"/>
<path style="fill:#67658c; stroke:none;" d="M520 1039L521 1040L520 1039M531 1039L532 1040L531 1039z"/>
<path style="fill:#aba8bf; stroke:none;" d="M537 1039L538 1040L537 1039M515 1040L516 1041L515 1040z"/>
<path style="fill:#67658c; stroke:none;" d="M521 1040L522 1041L521 1040M530 1040L531 1041L530 1040z"/>
<path style="fill:#aba8bf; stroke:none;" d="M536 1040L537 1041L536 1040M516 1041L517 1042L516 1041z"/>
<path style="fill:#67658c; stroke:none;" d="M522 1041L523 1042L522 1041M529 1041L530 1042L529 1041z"/>
<path style="fill:#aba8bf; stroke:none;" d="M535 1041L536 1042L535 1041M517 1042L518 1043L517 1042z"/>
<path style="fill:#67658c; stroke:none;" d="M523 1042L524 1043L523 1042M528 1042L529 1043L528 1042z"/>
<path style="fill:#aba8bf; stroke:none;" d="M534 1042L535 1043L534 1042M518 1043L519 1044L518 1043z"/>
<path style="fill:#67658c; stroke:none;" d="M524 1043L525 1044L524 1043M527 1043L528 1044L527 1043z"/>
<path style="fill:#aba8bf; stroke:none;" d="M533 1043L534 1044L533 1043M519 1044L520 1045L519 1044z"/>
<path style="fill:#67658c; stroke:none;" d="M525.667 1044.33L526.333 1044.67L525.667 1044.33z"/>
<path style="fill:#aba8bf; stroke:none;" d="M532 1044L533 1045L532 1044M520 1045L521 1046L520 1045M531 1045L532 1046L531 1045M521 1046L522 1047L521 1046M530 1046L531 1047L530 1046M522 1047L523 1048L522 1047M529 1047L530 1048L529 1047M523 1048L524 1049L523 1048M528 1048L529 1049L528 1048M524 1049L525 1050L524 1049M527 1049L528 1050L527 1049M525.667 1050.33L526.333 1050.67L525.667 1050.33M412 1055L412 1056L640 1056L619 1055L573 1055L412 1055M404 1063L404 1064L447 1064C435.775 1059.29 416.219 1063 404 1063M605 1063L605 1064L648 1064C636.775 1059.29 617.219 1063 605 1063z"/>
<path style="fill:#67658c; stroke:none;" d="M447 1090L448 1091L447 1090M604 1090L605 1091L604 1090M448 1091L449 1092L448 1091M603 1091L604 1092L603 1091M449 1092L450 1093L449 1092M602 1092L603 1093L602 1092M450 1093L451 1094L450 1093M601 1093L602 1094L601 1093M451 1094L452 1095L451 1094M600 1094L601 1095L600 1094M452 1095L453 1096L452 1095M599 1095L600 1096L599 1095M453 1096L454 1097L453 1096M598 1096L599 1097L598 1096M454 1097L455 1098L454 1097M597 1097L598 1098L597 1097M455 1098L456 1099L455 1098M596 1098L597 1099L596 1098M456 1099L457 1100L456 1099M595 1099L596 1100L595 1099M457 1100L458 1101L457 1100M594 1100L595 1101L594 1100M458 1101L459 1102L458 1101M593 1101L594 1102L593 1101M459 1102L460 1103L459 1102M592 1102L593 1103L592 1102M460 1103L461 1104L460 1103M591 1103L592 1104L591 1103M461 1104L462 1105L461 1104M590 1104L591 1105L590 1104M462 1105L463 1106L462 1105M589 1105L590 1106L589 1105M463 1106L464 1107L463 1106M588 1106L589 1107L588 1106M464 1107L465 1108L464 1107M587 1107L588 1108L587 1107M465 1108L466 1109L465 1108M586 1108L587 1109L586 1108M466 1109L467 1110L466 1109M585 1109L586 1110L585 1109M467 1110L468 1111L467 1110M584 1110L585 1111L584 1110M468 1111L469 1112L468 1111M583 1111L584 1112L583 1111M469 1112L470 1113L469 1112M582 1112L583 1113L582 1112M470 1113L471 1114L470 1113M581 1113L582 1114L581 1113M471 1114L472 1115L471 1114M580 1114L581 1115L580 1114M472 1115L473 1116L472 1115M579 1115L580 1116L579 1115M473 1116L474 1117L473 1116M578 1116L579 1117L578 1116M474 1117L475 1118L474 1117z"/>
<path style="fill:#7f7b9b; stroke:none;" d="M577 1117L578 1118L577 1117z"/>
<path style="fill:#67658c; stroke:none;" d="M475 1118L476 1119L475 1118z"/>
<path style="fill:#7f7b9b; stroke:none;" d="M576 1118L577 1119L576 1118z"/>
<path style="fill:#67658c; stroke:none;" d="M476 1119L477 1120L476 1119z"/>
<path style="fill:#7f7b9b; stroke:none;" d="M575 1119L576 1120L575 1119z"/>
<path style="fill:#67658c; stroke:none;" d="M477 1120L478 1121L477 1120z"/>
<path style="fill:#7f7b9b; stroke:none;" d="M574 1120L575 1121L574 1120z"/>
<path style="fill:#67658c; stroke:none;" d="M478 1121L479 1122L478 1121z"/>
<path style="fill:#7f7b9b; stroke:none;" d="M573 1121L574 1122L573 1121z"/>
<path style="fill:#67658c; stroke:none;" d="M479 1122L480 1123L479 1122z"/>
<path style="fill:#7f7b9b; stroke:none;" d="M572 1122L573 1123L572 1122z"/>
<path style="fill:#67658c; stroke:none;" d="M480 1123L481 1124L480 1123z"/>
<path style="fill:#7f7b9b; stroke:none;" d="M571 1123L572 1124L571 1123z"/>
<path style="fill:#67658c; stroke:none;" d="M481 1124L482 1125L481 1124z"/>
<path style="fill:#7f7b9b; stroke:none;" d="M570 1124L571 1125L570 1124z"/>
<path style="fill:#67658c; stroke:none;" d="M482 1125L483 1126L482 1125z"/>
<path style="fill:#7f7b9b; stroke:none;" d="M569 1125L570 1126L569 1125z"/>
<path style="fill:#67658c; stroke:none;" d="M483 1126L484 1127L483 1126z"/>
<path style="fill:#7f7b9b; stroke:none;" d="M568 1126L569 1127L568 1126z"/>
<path style="fill:#67658c; stroke:none;" d="M484 1127L485 1128L484 1127z"/>
<path style="fill:#7f7b9b; stroke:none;" d="M567 1127L568 1128L567 1127z"/>
<path style="fill:#67658c; stroke:none;" d="M485 1128L486 1129L485 1128z"/>
<path style="fill:#7f7b9b; stroke:none;" d="M566 1128L567 1129L566 1128z"/>
<path style="fill:#67658c; stroke:none;" d="M486 1129L487 1130L486 1129z"/>
<path style="fill:#7f7b9b; stroke:none;" d="M565 1129L566 1130L565 1129z"/>
<path style="fill:#67658c; stroke:none;" d="M487 1130L488 1131L487 1130z"/>
<path style="fill:#7f7b9b; stroke:none;" d="M564 1130L565 1131L564 1130z"/>
<path style="fill:#67658c; stroke:none;" d="M488 1131L489 1132L488 1131z"/>
<path style="fill:#7f7b9b; stroke:none;" d="M563 1131L564 1132L563 1131z"/>
<path style="fill:#67658c; stroke:none;" d="M489 1132L490 1133L489 1132z"/>
<path style="fill:#7f7b9b; stroke:none;" d="M562 1132L563 1133L562 1132z"/>
<path style="fill:#67658c; stroke:none;" d="M490 1133L491 1134L490 1133z"/>
<path style="fill:#7f7b9b; stroke:none;" d="M561 1133L562 1134L561 1133z"/>
<path style="fill:#67658c; stroke:none;" d="M491 1134L492 1135L491 1134z"/>
<path style="fill:#7f7b9b; stroke:none;" d="M560 1134L561 1135L560 1134z"/>
<path style="fill:#67658c; stroke:none;" d="M492 1135L493 1136L492 1135z"/>
<path style="fill:#7f7b9b; stroke:none;" d="M559 1135L560 1136L559 1135z"/>
<path style="fill:#67658c; stroke:none;" d="M493 1136L494 1137L493 1136z"/>
<path style="fill:#7f7b9b; stroke:none;" d="M558 1136L559 1137L558 1136z"/>
<path style="fill:#67658c; stroke:none;" d="M494 1137L495 1138L494 1137z"/>
<path style="fill:#7f7b9b; stroke:none;" d="M557 1137L558 1138L557 1137z"/>
<path style="fill:#67658c; stroke:none;" d="M495 1138L496 1139L495 1138z"/>
<path style="fill:#7f7b9b; stroke:none;" d="M556 1138L557 1139L556 1138z"/>
<path style="fill:#67658c; stroke:none;" d="M496 1139L497 1140L496 1139z"/>
<path style="fill:#7f7b9b; stroke:none;" d="M555 1139L556 1140L555 1139z"/>
<path style="fill:#67658c; stroke:none;" d="M497 1140L498 1141L497 1140z"/>
<path style="fill:#7f7b9b; stroke:none;" d="M554 1140L555 1141L554 1140z"/>
<path style="fill:#67658c; stroke:none;" d="M498 1141L499 1142L498 1141z"/>
<path style="fill:#7f7b9b; stroke:none;" d="M553 1141L554 1142L553 1141z"/>
<path style="fill:#67658c; stroke:none;" d="M499 1142L500 1143L499 1142z"/>
<path style="fill:#7f7b9b; stroke:none;" d="M552 1142L553 1143L552 1142z"/>
<path style="fill:#67658c; stroke:none;" d="M500 1143L501 1144L500 1143z"/>
<path style="fill:#7f7b9b; stroke:none;" d="M551 1143L552 1144L551 1143z"/>
<path style="fill:#67658c; stroke:none;" d="M501 1144L502 1145L501 1144z"/>
<path style="fill:#7f7b9b; stroke:none;" d="M550 1144L551 1145L550 1144z"/>
<path style="fill:#67658c; stroke:none;" d="M502 1145L503 1146L502 1145z"/>
<path style="fill:#7f7b9b; stroke:none;" d="M549 1145L550 1146L549 1145z"/>
<path style="fill:#67658c; stroke:none;" d="M503 1146L504 1147L503 1146z"/>
<path style="fill:#7f7b9b; stroke:none;" d="M548 1146L549 1147L548 1146z"/>
<path style="fill:#67658c; stroke:none;" d="M504 1147L505 1148L504 1147z"/>
<path style="fill:#7f7b9b; stroke:none;" d="M547 1147L548 1148L547 1147z"/>
<path style="fill:#67658c; stroke:none;" d="M505 1148L506 1149L505 1148z"/>
<path style="fill:#7f7b9b; stroke:none;" d="M546 1148L547 1149L546 1148z"/>
<path style="fill:#67658c; stroke:none;" d="M506 1149L507 1150L506 1149z"/>
<path style="fill:#7f7b9b; stroke:none;" d="M545 1149L546 1150L545 1149z"/>
<path style="fill:#67658c; stroke:none;" d="M507 1150L508 1151L507 1150z"/>
<path style="fill:#7f7b9b; stroke:none;" d="M544 1150L545 1151L544 1150z"/>
<path style="fill:#67658c; stroke:none;" d="M508 1151L509 1152L508 1151z"/>
<path style="fill:#7f7b9b; stroke:none;" d="M543 1151L544 1152L543 1151z"/>
<path style="fill:#67658c; stroke:none;" d="M509 1152L510 1153L509 1152z"/>
<path style="fill:#7f7b9b; stroke:none;" d="M542 1152L543 1153L542 1152z"/>
<path style="fill:#67658c; stroke:none;" d="M510 1153L511 1154L510 1153z"/>
<path style="fill:#7f7b9b; stroke:none;" d="M541 1153L542 1154L541 1153z"/>
<path style="fill:#67658c; stroke:none;" d="M511 1154L512 1155L511 1154z"/>
<path style="fill:#7f7b9b; stroke:none;" d="M540 1154L541 1155L540 1154z"/>
<path style="fill:#67658c; stroke:none;" d="M512 1155L513 1156L512 1155z"/>
<path style="fill:#7f7b9b; stroke:none;" d="M539 1155L540 1156L539 1155z"/>
<path style="fill:#67658c; stroke:none;" d="M513 1156L514 1157L513 1156z"/>
<path style="fill:#7f7b9b; stroke:none;" d="M538 1156L539 1157L538 1156z"/>
<path style="fill:#67658c; stroke:none;" d="M514 1157L515 1158L514 1157z"/>
<path style="fill:#7f7b9b; stroke:none;" d="M537 1157L538 1158L537 1157z"/>
<path style="fill:#67658c; stroke:none;" d="M515 1158L516 1159L515 1158z"/>
<path style="fill:#7f7b9b; stroke:none;" d="M536 1158L537 1159L536 1158z"/>
<path style="fill:#67658c; stroke:none;" d="M516 1159L517 1160L516 1159z"/>
<path style="fill:#7f7b9b; stroke:none;" d="M535 1159L536 1160L535 1159z"/>
<path style="fill:#67658c; stroke:none;" d="M517 1160L518 1161L517 1160z"/>
<path style="fill:#7f7b9b; stroke:none;" d="M534 1160L535 1161L534 1160z"/>
<path style="fill:#67658c; stroke:none;" d="M518 1161L519 1162L518 1161z"/>
<path style="fill:#7f7b9b; stroke:none;" d="M533 1161L534 1162L533 1161z"/>
<path style="fill:#67658c; stroke:none;" d="M519 1162L520 1163L519 1162z"/>
<path style="fill:#7f7b9b; stroke:none;" d="M532 1162L533 1163L532 1162z"/>
<path style="fill:#67658c; stroke:none;" d="M520 1163L521 1164L520 1163z"/>
<path style="fill:#7f7b9b; stroke:none;" d="M531 1163L532 1164L531 1163z"/>
<path style="fill:#67658c; stroke:none;" d="M521 1164L522 1165L521 1164z"/>
<path style="fill:#7f7b9b; stroke:none;" d="M530 1164L531 1165L530 1164z"/>
<path style="fill:#67658c; stroke:none;" d="M522 1165L523 1166L522 1165z"/>
<path style="fill:#7f7b9b; stroke:none;" d="M529 1165L530 1166L529 1165z"/>
<path style="fill:#67658c; stroke:none;" d="M523 1166L524 1167L523 1166z"/>
<path style="fill:#7f7b9b; stroke:none;" d="M528 1166L529 1167L528 1166z"/>
<path style="fill:#67658c; stroke:none;" d="M524 1167L525 1168L524 1167z"/>
<path style="fill:#7f7b9b; stroke:none;" d="M527 1167L528 1168L527 1167z"/>
<path style="fill:#67658c; stroke:none;" d="M525 1168L526 1169L525 1168z"/>
<path style="fill:#7f7b9b; stroke:none;" d="M526 1168L527 1169L526 1168M343 1275L344 1276L343 1275z"/>
<path style="fill:#aba8bf; stroke:none;" d="M344 1275L345 1276L344 1275z"/>
<path style="fill:#fdfdfe; stroke:none;" d="M342 1276L342 1337C358.808 1340.12 354 1323.08 354 1311L379 1311C379 1323.08 374.192 1340.12 391 1337L391 1276C374.703 1272.98 379 1288.11 379 1300L354 1300C354 1288.11 358.297 1272.98 342 1276z"/>
<path style="fill:#7f7b9b; stroke:none;" d="M352.667 1275.33L353.333 1275.67L352.667 1275.33M379.667 1275.33L380.333 1275.67L379.667 1275.33z"/>
<path style="fill:#aba8bf; stroke:none;" d="M388 1275L389 1276L388 1275z"/>
<path style="fill:#7f7b9b; stroke:none;" d="M389 1275L390 1276L389 1275z"/>
<path style="fill:#67658c; stroke:none;" d="M390 1275L391 1276L390 1275M443 1275L444 1276L443 1275z"/>
<path style="fill:#7f7b9b; stroke:none;" d="M444 1275L445 1276L444 1275z"/>
<path style="fill:#fdfdfe; stroke:none;" d="M445.275 1275.74C441.325 1277.62 440.249 1284.26 439 1288C435.196 1299.4 430.879 1310.62 427.003 1322C425.896 1325.25 421.2 1334.16 424.618 1336.97C427.107 1339.02 432.047 1337.9 433.914 1335.57C436.227 1332.67 435.954 1328.21 438.702 1325.6C442.027 1322.45 457.929 1322.65 461.722 1325.03C467.475 1328.63 466.502 1343.08 477.667 1337.4C482.37 1335 475.718 1322.46 474.424 1319C469.979 1307.11 467.418 1287.09 459.157 1277.43C456.469 1274.29 448.843 1274.05 445.275 1275.74z"/>
<path style="fill:#7f7b9b; stroke:none;" d="M457.667 1275.33L458.333 1275.67L457.667 1275.33z"/>
<path style="fill:#67658c; stroke:none;" d="M512 1275L513 1276L512 1275z"/>
<path style="fill:#fdfdfe; stroke:none;" d="M513.318 1276.03C507.917 1279.63 511 1299.06 511 1305C511 1312.47 507.831 1329.39 512.028 1335.68C514.066 1338.74 518.85 1338 522 1338C531.611 1338 542.572 1338.24 550.999 1332.87C566.168 1323.19 567.368 1295.35 554.907 1283.1C548.192 1276.51 538.044 1275.04 529 1275C524.73 1274.98 517.02 1273.56 513.318 1276.03z"/>
<path style="fill:#aba8bf; stroke:none;" d="M536 1275L537 1276L536 1275z"/>
<path style="fill:#7f7b9b; stroke:none;" d="M537 1275L537 1276L540 1276L537 1275z"/>
<path style="fill:#67658c; stroke:none;" d="M540 1275L541 1276L540 1275z"/>
<path style="fill:#7f7b9b; stroke:none;" d="M598 1275L599 1276L598 1275z"/>
<path style="fill:#aba8bf; stroke:none;" d="M599 1275L600 1276L599 1275z"/>
<path style="fill:#fdfdfe; stroke:none;" d="M597 1276L597 1337L607.972 1336.26L609 1324L609 1290L607.972 1276.74L597 1276z"/>
<path style="fill:#7f7b9b; stroke:none;" d="M607.667 1275.33L608.333 1275.67L607.667 1275.33M640 1275L641 1276L640 1275z"/>
<path style="fill:#fdfdfe; stroke:none;" d="M658 1286L658 1323L659.028 1336.26L670 1337L670 1286C673.969 1286 682.139 1287.55 685.397 1284.97C695.571 1276.91 676.731 1275 673 1275C664.901 1275 649.601 1272.02 642.318 1275.6C639.127 1277.17 639.128 1283.83 642.318 1285.4C646.356 1287.38 653.565 1286 658 1286z"/>
<path style="fill:#aba8bf; stroke:none;" d="M686 1275L687 1276L686 1275z"/>
<path style="fill:#7f7b9b; stroke:none;" d="M719 1275L720 1276L719 1275z"/>
<path style="fill:#aba8bf; stroke:none;" d="M720 1275L721 1276L720 1275z"/>
<path style="fill:#fdfdfe; stroke:none;" d="M718 1276L718 1337C734.808 1340.12 730 1323.08 730 1311L755 1311C755 1323.08 750.192 1340.12 767 1337L767 1276C750.703 1272.98 755 1288.11 755 1300L730 1300C730 1288.11 734.297 1272.98 718 1276z"/>
<path style="fill:#7f7b9b; stroke:none;" d="M728.667 1275.33L729.333 1275.67L728.667 1275.33M755.667 1275.33L756.333 1275.67L755.667 1275.33z"/>
<path style="fill:#aba8bf; stroke:none;" d="M764 1275L765 1276L764 1275z"/>
<path style="fill:#7f7b9b; stroke:none;" d="M765 1275L766 1276L765 1275z"/>
<path style="fill:#67658c; stroke:none;" d="M766 1275L767 1276L766 1275z"/>
<path style="fill:#7f7b9b; stroke:none;" d="M354 1276L355 1277L354 1276M378 1276L378 1300L379 1300L378 1276M459 1276L460 1277L459 1276M511 1276L512 1277L511 1276z"/>
<path style="fill:#aba8bf; stroke:none;" d="M542 1276L543 1277L542 1276z"/>
<path style="fill:#7f7b9b; stroke:none;" d="M543 1276L544 1277L543 1276z"/>
<path style="fill:#67658c; stroke:none;" d="M544 1276L545 1277L544 1276z"/>
<path style="fill:#7f7b9b; stroke:none;" d="M609 1276L610 1277L609 1276M687 1276L688 1277L687 1276M730 1276L731 1277L730 1276M754 1276L754 1300L755 1300L754 1276z"/>
<path style="fill:#aba8bf; stroke:none;" d="M354 1277L354 1300L355 1300L354 1277z"/>
<path style="fill:#67658c; stroke:none;" d="M391 1277L391 1336L392 1336L392 1296L391 1277z"/>
<path style="fill:#7f7b9b; stroke:none;" d="M442 1277L443 1278L442 1277M546 1277L547 1278L546 1277z"/>
<path style="fill:#aba8bf; stroke:none;" d="M609 1277L609 1336L610 1336L610 1296L609 1277z"/>
<path style="fill:#67658c; stroke:none;" d="M639 1277L639 1284L640 1284L639 1277z"/>
<path style="fill:#aba8bf; stroke:none;" d="M687 1277L687 1284L688 1284L687 1277M730 1277L730 1300L731 1300L730 1277z"/>
<path style="fill:#67658c; stroke:none;" d="M767 1277L767 1336L768 1336L768 1296L767 1277z"/>
<path style="fill:#aba8bf; stroke:none;" d="M442 1278L443 1279L442 1278z"/>
<path style="fill:#67658c; stroke:none;" d="M460 1278L461 1279L460 1278z"/>
<path style="fill:#aba8bf; stroke:none;" d="M548 1278L549 1279L548 1278z"/>
<path style="fill:#67658c; stroke:none;" d="M549 1278L550 1279L549 1278M441 1279L442 1280L441 1279z"/>
<path style="fill:#aba8bf; stroke:none;" d="M460 1279L461 1280L460 1279M550 1279L551 1280L550 1279z"/>
<path style="fill:#7f7b9b; stroke:none;" d="M441 1280L442 1281L441 1280z"/>
<path style="fill:#67658c; stroke:none;" d="M552 1280L553 1281L552 1280z"/>
<path style="fill:#7f7b9b; stroke:none;" d="M461 1281L462 1282L461 1281z"/>
<path style="fill:#aba8bf; stroke:none;" d="M553 1281L554 1282L553 1281z"/>
<path style="fill:#67658c; stroke:none;" d="M440 1282L441 1283L440 1282z"/>
<path style="fill:#aba8bf; stroke:none;" d="M461 1282L462 1283L461 1282M554 1282L555 1283L554 1282z"/>
<path style="fill:#7f7b9b; stroke:none;" d="M440 1283L441 1284L440 1283z"/>
<path style="fill:#67658c; stroke:none;" d="M462 1283L463 1284L462 1283z"/>
<path style="fill:#aba8bf; stroke:none;" d="M555 1283L556 1284L555 1283z"/>
<path style="fill:#7f7b9b; stroke:none;" d="M462 1284L463 1285L462 1284z"/>
<path style="fill:#aba8bf; stroke:none;" d="M556 1284L557 1285L556 1284z"/>
<path style="fill:#7f7b9b; stroke:none;" d="M687 1284L688 1285L687 1284z"/>
<path style="fill:#67658c; stroke:none;" d="M439 1285L440 1286L439 1285z"/>
<path style="fill:#aba8bf; stroke:none;" d="M462 1285L463 1286L462 1285M523 1285L523 1328L524 1328C524 1315.78 527.711 1296.23 523 1285z"/>
<path style="fill:#232b63; stroke:none;" d="M524 1285L524 1328C530.204 1328 537.681 1328.33 542.895 1324.35C552.26 1317.2 552.582 1297.2 543.812 1289.53C538.39 1284.79 530.759 1285 524 1285z"/>
<path style="fill:#67658c; stroke:none;" d="M534 1285L535 1286L534 1285z"/>
<path style="fill:#7f7b9b; stroke:none;" d="M535.667 1285.33L536.333 1285.67L535.667 1285.33z"/>
<path style="fill:#aba8bf; stroke:none;" d="M537 1285L538 1286L537 1285z"/>
<path style="fill:#7f7b9b; stroke:none;" d="M557 1285L558 1286L557 1285M640 1285L641 1286L640 1285z"/>
<path style="fill:#aba8bf; stroke:none;" d="M686 1285L687 1286L686 1285M439 1286L440 1287L439 1286z"/>
<path style="fill:#67658c; stroke:none;" d="M463 1286L464 1287L463 1286z"/>
<path style="fill:#7f7b9b; stroke:none;" d="M539 1286L540 1287L539 1286z"/>
<path style="fill:#67658c; stroke:none;" d="M558 1286L559 1287L558 1286z"/>
<path style="fill:#aba8bf; stroke:none;" d="M657 1286L657 1336L658 1336C658 1321.95 662.409 1298.89 657 1286z"/>
<path style="fill:#67658c; stroke:none;" d="M670 1286L670 1336L671 1336C671 1321.95 675.409 1298.89 670 1286z"/>
<path style="fill:#7f7b9b; stroke:none;" d="M450 1287L451 1288L450 1287M463 1287L464 1288L463 1287M541 1287L542 1288L541 1287z"/>
<path style="fill:#aba8bf; stroke:none;" d="M558 1287L559 1288L558 1287z"/>
<path style="fill:#67658c; stroke:none;" d="M438 1288L439 1289L438 1288z"/>
<path style="fill:#232b63; stroke:none;" d="M450 1288L442 1314L459 1314L450 1288z"/>
<path style="fill:#aba8bf; stroke:none;" d="M451 1288L452 1289L451 1288z"/>
<path style="fill:#67658c; stroke:none;" d="M542 1288L543 1289L542 1288z"/>
<path style="fill:#aba8bf; stroke:none;" d="M543 1288L544 1289L543 1288z"/>
<path style="fill:#7f7b9b; stroke:none;" d="M559 1288L560 1289L559 1288z"/>
<path style="fill:#aba8bf; stroke:none;" d="M438 1289L439 1290L438 1289M449 1289L450 1290L449 1289z"/>
<path style="fill:#7f7b9b; stroke:none;" d="M451 1289L452 1290L451 1289z"/>
<path style="fill:#67658c; stroke:none;" d="M464 1289L465 1290L464 1289z"/>
<path style="fill:#aba8bf; stroke:none;" d="M544 1289L545 1290L544 1289z"/>
<path style="fill:#67658c; stroke:none;" d="M449 1290L450 1291L449 1290z"/>
<path style="fill:#7f7b9b; stroke:none;" d="M464 1290L465 1291L464 1290z"/>
<path style="fill:#aba8bf; stroke:none;" d="M545 1290L546 1291L545 1290z"/>
<path style="fill:#7f7b9b; stroke:none;" d="M560 1290L561 1291L560 1290M437 1291L438 1292L437 1291z"/>
<path style="fill:#aba8bf; stroke:none;" d="M452 1291L453 1292L452 1291M546 1291L547 1292L546 1291M437 1292L438 1293L437 1292M448 1292L449 1293L448 1292z"/>
<path style="fill:#7f7b9b; stroke:none;" d="M452 1292L453 1293L452 1292z"/>
<path style="fill:#67658c; stroke:none;" d="M465 1292L466 1293L465 1292M546 1292L547 1293L546 1292M561 1292L562 1293L561 1292M448 1293L449 1294L448 1293z"/>
<path style="fill:#aba8bf; stroke:none;" d="M465 1293L466 1294L465 1293z"/>
<path style="fill:#7f7b9b; stroke:none;" d="M547 1293L548 1294L547 1293z"/>
<path style="fill:#aba8bf; stroke:none;" d="M561 1293L562 1294L561 1293z"/>
<path style="fill:#7f7b9b; stroke:none;" d="M436 1294L437 1295L436 1294z"/>
<path style="fill:#aba8bf; stroke:none;" d="M453 1294L454 1295L453 1294M436 1295L437 1296L436 1295M447 1295L448 1296L447 1295z"/>
<path style="fill:#7f7b9b; stroke:none;" d="M453 1295L454 1296L453 1295z"/>
<path style="fill:#67658c; stroke:none;" d="M466 1295L467 1296L466 1295z"/>
<path style="fill:#aba8bf; stroke:none;" d="M548 1295L549 1296L548 1295z"/>
<path style="fill:#67658c; stroke:none;" d="M562 1295L563 1296L562 1295M435 1296L436 1297L435 1296M447 1296L448 1297L447 1296z"/>
<path style="fill:#aba8bf; stroke:none;" d="M466 1296L467 1297L466 1296z"/>
<path style="fill:#67658c; stroke:none;" d="M548 1296L549 1297L548 1296z"/>
<path style="fill:#7f7b9b; stroke:none;" d="M562 1296L563 1297L562 1296M435 1297L436 1298L435 1297z"/>
<path style="fill:#aba8bf; stroke:none;" d="M454 1297L455 1298L454 1297M562.333 1297.67L562.667 1298.33L562.333 1297.67M435 1298L436 1299L435 1298M446 1298L447 1299L446 1298z"/>
<path style="fill:#7f7b9b; stroke:none;" d="M454 1298L455 1299L454 1298M467 1298L468 1299L467 1298z"/>
<path style="fill:#aba8bf; stroke:none;" d="M549 1298L550 1299L549 1298z"/>
<path style="fill:#67658c; stroke:none;" d="M434 1299L435 1300L434 1299M446 1299L447 1300L446 1299z"/>
<path style="fill:#aba8bf; stroke:none;" d="M467 1299L468 1300L467 1299z"/>
<path style="fill:#7f7b9b; stroke:none;" d="M549 1299L550 1300L549 1299M434 1300L435 1301L434 1300z"/>
<path style="fill:#aba8bf; stroke:none;" d="M455 1300L456 1301L455 1300z"/>
<path style="fill:#67658c; stroke:none;" d="M549.333 1300.67L549.667 1301.33L549.333 1300.67z"/>
<path style="fill:#aba8bf; stroke:none;" d="M445 1301L446 1302L445 1301z"/>
<path style="fill:#7f7b9b; stroke:none;" d="M455 1301L456 1302L455 1301M468 1301L469 1302L468 1301z"/>
<path style="fill:#67658c; stroke:none;" d="M563 1301L563 1310L564 1310L563 1301M433 1302L434 1303L433 1302M445 1302L446 1303L445 1302z"/>
<path style="fill:#aba8bf; stroke:none;" d="M468 1302L469 1303L468 1302z"/>
<path style="fill:#7f7b9b; stroke:none;" d="M433 1303L434 1304L433 1303z"/>
<path style="fill:#aba8bf; stroke:none;" d="M456 1303L457 1304L456 1303z"/>
<path style="fill:#67658c; stroke:none;" d="M469 1303L470 1304L469 1303z"/>
<path style="fill:#aba8bf; stroke:none;" d="M444 1304L445 1305L444 1304z"/>
<path style="fill:#7f7b9b; stroke:none;" d="M456 1304L457 1305L456 1304M469 1304L470 1305L469 1304z"/>
<path style="fill:#67658c; stroke:none;" d="M432 1305L433 1306L432 1305M444 1305L445 1306L444 1305z"/>
<path style="fill:#aba8bf; stroke:none;" d="M432 1306L433 1307L432 1306M457 1306L458 1307L457 1306z"/>
<path style="fill:#67658c; stroke:none;" d="M470 1306L471 1307L470 1306z"/>
<path style="fill:#aba8bf; stroke:none;" d="M443 1307L444 1308L443 1307z"/>
<path style="fill:#7f7b9b; stroke:none;" d="M457 1307L458 1308L457 1307M470 1307L471 1308L470 1307M431 1308L432 1309L431 1308z"/>
<path style="fill:#67658c; stroke:none;" d="M443 1308L444 1309L443 1308z"/>
<path style="fill:#aba8bf; stroke:none;" d="M431 1309L432 1310L431 1309M458 1309L459 1310L458 1309z"/>
<path style="fill:#67658c; stroke:none;" d="M471 1309L472 1310L471 1309z"/>
<path style="fill:#aba8bf; stroke:none;" d="M442 1310L443 1311L442 1310z"/>
<path style="fill:#7f7b9b; stroke:none;" d="M458 1310L459 1311L458 1310z"/>
<path style="fill:#aba8bf; stroke:none;" d="M471 1310L472 1311L471 1310M354 1311L354 1336L355 1336L354 1311z"/>
<path style="fill:#7f7b9b; stroke:none;" d="M378 1311L378 1337L379 1337L378 1311M430 1311L431 1312L430 1311z"/>
<path style="fill:#67658c; stroke:none;" d="M442 1311L443 1312L442 1311M549 1311L550 1312L549 1311z"/>
<path style="fill:#aba8bf; stroke:none;" d="M730 1311L730 1336L731 1336L730 1311z"/>
<path style="fill:#7f7b9b; stroke:none;" d="M754 1311L754 1337L755 1337L754 1311z"/>
<path style="fill:#aba8bf; stroke:none;" d="M430 1312L431 1313L430 1312M459 1312L460 1313L459 1312z"/>
<path style="fill:#67658c; stroke:none;" d="M472 1312L473 1313L472 1312z"/>
<path style="fill:#7f7b9b; stroke:none;" d="M549.333 1312.67L549.667 1313.33L549.333 1312.67z"/>
<path style="fill:#67658c; stroke:none;" d="M429 1313L430 1314L429 1313z"/>
<path style="fill:#aba8bf; stroke:none;" d="M441 1313L442 1314L441 1313z"/>
<path style="fill:#7f7b9b; stroke:none;" d="M459 1313L460 1314L459 1313z"/>
<path style="fill:#aba8bf; stroke:none;" d="M472 1313L473 1314L472 1313M562.333 1313.67L562.667 1314.33L562.333 1313.67z"/>
<path style="fill:#7f7b9b; stroke:none;" d="M429 1314L430 1315L429 1314z"/>
<path style="fill:#aba8bf; stroke:none;" d="M549 1314L550 1315L549 1314M429 1315L430 1316L429 1315z"/>
<path style="fill:#7f7b9b; stroke:none;" d="M473 1315L474 1316L473 1315M562 1315L563 1316L562 1315z"/>
<path style="fill:#67658c; stroke:none;" d="M428 1316L429 1317L428 1316z"/>
<path style="fill:#aba8bf; stroke:none;" d="M473 1316L474 1317L473 1316z"/>
<path style="fill:#7f7b9b; stroke:none;" d="M548 1316L549 1317L548 1316z"/>
<path style="fill:#67658c; stroke:none;" d="M562 1316L563 1317L562 1316z"/>
<path style="fill:#7f7b9b; stroke:none;" d="M428 1317L429 1318L428 1317z"/>
<path style="fill:#aba8bf; stroke:none;" d="M548 1317L549 1318L548 1317z"/>
<path style="fill:#7f7b9b; stroke:none;" d="M474 1318L475 1319L474 1318z"/>
<path style="fill:#67658c; stroke:none;" d="M547 1318L548 1319L547 1318z"/>
<path style="fill:#aba8bf; stroke:none;" d="M561 1318L562 1319L561 1318z"/>
<path style="fill:#67658c; stroke:none;" d="M427 1319L428 1320L427 1319z"/>
<path style="fill:#aba8bf; stroke:none;" d="M474 1319L475 1320L474 1319M547 1319L548 1320L547 1319z"/>
<path style="fill:#7f7b9b; stroke:none;" d="M561 1319L562 1320L561 1319M427 1320L428 1321L427 1320z"/>
<path style="fill:#67658c; stroke:none;" d="M475 1320L476 1321L475 1320M546 1320L547 1321L546 1320z"/>
<path style="fill:#7f7b9b; stroke:none;" d="M475 1321L476 1322L475 1321z"/>
<path style="fill:#aba8bf; stroke:none;" d="M546 1321L547 1322L546 1321M560 1321L561 1322L560 1321z"/>
<path style="fill:#67658c; stroke:none;" d="M426 1322L427 1323L426 1322z"/>
<path style="fill:#aba8bf; stroke:none;" d="M545 1322L546 1323L545 1322z"/>
<path style="fill:#67658c; stroke:none;" d="M560 1322L561 1323L560 1322z"/>
<path style="fill:#aba8bf; stroke:none;" d="M426 1323L427 1324L426 1323z"/>
<path style="fill:#67658c; stroke:none;" d="M476 1323L477 1324L476 1323z"/>
<path style="fill:#aba8bf; stroke:none;" d="M544 1323L545 1324L544 1323M559 1323L560 1324L559 1323z"/>
<path style="fill:#7f7b9b; stroke:none;" d="M438 1324L439 1325L438 1324M476 1324L477 1325L476 1324z"/>
<path style="fill:#aba8bf; stroke:none;" d="M543 1324L544 1325L543 1324z"/>
<path style="fill:#67658c; stroke:none;" d="M559 1324L560 1325L559 1324M425 1325L426 1326L425 1325z"/>
<path style="fill:#aba8bf; stroke:none;" d="M463 1325L464 1326L463 1325z"/>
<path style="fill:#7f7b9b; stroke:none;" d="M541 1325L542 1326L541 1325M558 1325L559 1326L558 1325z"/>
<path style="fill:#aba8bf; stroke:none;" d="M425 1326L426 1327L425 1326M437 1326L438 1327L437 1326z"/>
<path style="fill:#67658c; stroke:none;" d="M463 1326L464 1327L463 1326M477 1326L478 1327L477 1326z"/>
<path style="fill:#7f7b9b; stroke:none;" d="M539 1326L540 1327L539 1326M437 1327L438 1328L437 1327z"/>
<path style="fill:#aba8bf; stroke:none;" d="M477 1327L478 1328L477 1327z"/>
<path style="fill:#67658c; stroke:none;" d="M534 1327L535 1328L534 1327z"/>
<path style="fill:#7f7b9b; stroke:none;" d="M535.667 1327.33L536.333 1327.67L535.667 1327.33z"/>
<path style="fill:#aba8bf; stroke:none;" d="M537 1327L538 1328L537 1327z"/>
<path style="fill:#67658c; stroke:none;" d="M557 1327L558 1328L557 1327z"/>
<path style="fill:#7f7b9b; stroke:none;" d="M424 1328L425 1329L424 1328z"/>
<path style="fill:#aba8bf; stroke:none;" d="M464 1328L465 1329L464 1328z"/>
<path style="fill:#7f7b9b; stroke:none;" d="M556 1328L557 1329L556 1328z"/>
<path style="fill:#aba8bf; stroke:none;" d="M424 1329L425 1330L424 1329M436 1329L437 1330L436 1329z"/>
<path style="fill:#67658c; stroke:none;" d="M464 1329L465 1330L464 1329M478 1329L479 1330L478 1329z"/>
<path style="fill:#7f7b9b; stroke:none;" d="M555 1329L556 1330L555 1329M436 1330L437 1331L436 1330z"/>
<path style="fill:#aba8bf; stroke:none;" d="M478 1330L479 1331L478 1330z"/>
<path style="fill:#7f7b9b; stroke:none;" d="M554 1330L555 1331L554 1330M423 1331L424 1332L423 1331z"/>
<path style="fill:#aba8bf; stroke:none;" d="M465 1331L466 1332L465 1331z"/>
<path style="fill:#67658c; stroke:none;" d="M553 1331L554 1332L553 1331z"/>
<path style="fill:#aba8bf; stroke:none;" d="M423 1332L424 1333L423 1332M435 1332L436 1333L435 1332z"/>
<path style="fill:#67658c; stroke:none;" d="M465 1332L466 1333L465 1332z"/>
<path style="fill:#7f7b9b; stroke:none;" d="M479 1332L480 1333L479 1332z"/>
<path style="fill:#aba8bf; stroke:none;" d="M551 1332L552 1333L551 1332z"/>
<path style="fill:#67658c; stroke:none;" d="M552 1332L553 1333L552 1332M422 1333L423 1334L422 1333z"/>
<path style="fill:#7f7b9b; stroke:none;" d="M435 1333L436 1334L435 1333z"/>
<path style="fill:#aba8bf; stroke:none;" d="M479 1333L480 1334L479 1333z"/>
<path style="fill:#7f7b9b; stroke:none;" d="M550 1333L551 1334L550 1333M422 1334L423 1335L422 1334z"/>
<path style="fill:#67658c; stroke:none;" d="M435 1334L436 1335L435 1334z"/>
<path style="fill:#aba8bf; stroke:none;" d="M466 1334L467 1335L466 1334z"/>
<path style="fill:#7f7b9b; stroke:none;" d="M548 1334L549 1335L548 1334z"/>
<path style="fill:#aba8bf; stroke:none;" d="M422.333 1335.67L422.667 1336.33L422.333 1335.67M434 1335L435 1336L434 1335z"/>
<path style="fill:#67658c; stroke:none;" d="M466 1335L467 1336L466 1335M480.333 1335.67L480.667 1336.33L480.333 1335.67z"/>
<path style="fill:#aba8bf; stroke:none;" d="M545 1335L546 1336L545 1335z"/>
<path style="fill:#7f7b9b; stroke:none;" d="M546 1335L547 1336L546 1335M354 1336L355 1337L354 1336M434 1336L435 1337L434 1336M511 1336L512 1337L511 1336M542.667 1336.33L543.333 1336.67L542.667 1336.33M609 1336L610 1337L609 1336M657 1336L658 1337L657 1336M730 1336L731 1337L730 1336M343 1337L344 1338L343 1337z"/>
<path style="fill:#aba8bf; stroke:none;" d="M344 1337L345 1338L344 1337z"/>
<path style="fill:#7f7b9b; stroke:none;" d="M352.667 1337.33L353.333 1337.67L352.667 1337.33M379.667 1337.33L380.333 1337.67L379.667 1337.33z"/>
<path style="fill:#aba8bf; stroke:none;" d="M388 1337L389 1338L388 1337z"/>
<path style="fill:#7f7b9b; stroke:none;" d="M389 1337L390 1338L389 1337M423 1337L424 1338L423 1337z"/>
<path style="fill:#aba8bf; stroke:none;" d="M432 1337L433 1338L432 1337z"/>
<path style="fill:#7f7b9b; stroke:none;" d="M433 1337L434 1338L433 1337z"/>
<path style="fill:#67658c; stroke:none;" d="M467 1337L468 1338L467 1337z"/>
<path style="fill:#7f7b9b; stroke:none;" d="M468 1337L469 1338L468 1337M479 1337L480 1338L479 1337z"/>
<path style="fill:#67658c; stroke:none;" d="M512 1337L513 1338L512 1337z"/>
<path style="fill:#aba8bf; stroke:none;" d="M535 1337L536 1338L535 1337z"/>
<path style="fill:#7f7b9b; stroke:none;" d="M536 1337L536 1338L539 1338L536 1337z"/>
<path style="fill:#67658c; stroke:none;" d="M539 1337L540 1338L539 1337z"/>
<path style="fill:#7f7b9b; stroke:none;" d="M598 1337L599 1338L598 1337z"/>
<path style="fill:#aba8bf; stroke:none;" d="M599 1337L600 1338L599 1337z"/>
<path style="fill:#7f7b9b; stroke:none;" d="M607.667 1337.33L608.333 1337.67L607.667 1337.33M658.667 1337.33L659.333 1337.67L658.667 1337.33z"/>
<path style="fill:#aba8bf; stroke:none;" d="M667 1337L668 1338L667 1337z"/>
<path style="fill:#7f7b9b; stroke:none;" d="M668 1337L669 1338L668 1337z"/>
<path style="fill:#67658c; stroke:none;" d="M669 1337L670 1338L669 1337z"/>
<path style="fill:#7f7b9b; stroke:none;" d="M719 1337L720 1338L719 1337z"/>
<path style="fill:#aba8bf; stroke:none;" d="M720 1337L721 1338L720 1337z"/>
<path style="fill:#7f7b9b; stroke:none;" d="M728.667 1337.33L729.333 1337.67L728.667 1337.33M755.667 1337.33L756.333 1337.67L755.667 1337.33z"/>
<path style="fill:#aba8bf; stroke:none;" d="M764 1337L765 1338L764 1337z"/>
<path style="fill:#7f7b9b; stroke:none;" d="M765 1337L766 1338L765 1337z"/>
</svg>
